<mxfile host="app.diagrams.net" modified="2022-11-15T09:49:20.279Z" agent="5.0 (X11)" etag="CXJxKABkeqHRl9LNO4zc" version="20.5.0" type="github">
  <diagram id="M2FlMD3nGxHvHR8v5HWW" name="Page-1">
    <mxGraphModel dx="1354" dy="1818" grid="1" gridSize="10" guides="1" tooltips="1" connect="1" arrows="1" fold="1" page="1" pageScale="1" pageWidth="850" pageHeight="1100" math="0" shadow="0">
      <root>
        <mxCell id="0" />
        <mxCell id="1" parent="0" />
        <mxCell id="EyfO6nV798qz1CIs0pT1-207" value="" style="group" parent="1" vertex="1" connectable="0">
          <mxGeometry y="-1070" width="1160" height="730" as="geometry" />
        </mxCell>
        <mxCell id="EyfO6nV798qz1CIs0pT1-3" value="" style="rounded=0;whiteSpace=wrap;html=1;" parent="EyfO6nV798qz1CIs0pT1-207" vertex="1">
          <mxGeometry y="50" width="1160" height="680" as="geometry" />
        </mxCell>
        <mxCell id="EyfO6nV798qz1CIs0pT1-4" value="" style="rounded=0;whiteSpace=wrap;html=1;" parent="EyfO6nV798qz1CIs0pT1-207" vertex="1">
          <mxGeometry x="20" y="70" width="1110" height="100" as="geometry" />
        </mxCell>
        <mxCell id="EyfO6nV798qz1CIs0pT1-5" value="nav button" style="rounded=0;whiteSpace=wrap;html=1;" parent="EyfO6nV798qz1CIs0pT1-207" vertex="1">
          <mxGeometry x="40" y="90" width="120" height="60" as="geometry" />
        </mxCell>
        <mxCell id="EyfO6nV798qz1CIs0pT1-6" value="nav button" style="rounded=0;whiteSpace=wrap;html=1;" parent="EyfO6nV798qz1CIs0pT1-207" vertex="1">
          <mxGeometry x="990" y="90" width="120" height="60" as="geometry" />
        </mxCell>
        <mxCell id="EyfO6nV798qz1CIs0pT1-7" value="nav button" style="rounded=0;whiteSpace=wrap;html=1;" parent="EyfO6nV798qz1CIs0pT1-207" vertex="1">
          <mxGeometry x="515" y="90" width="120" height="60" as="geometry" />
        </mxCell>
        <mxCell id="EyfO6nV798qz1CIs0pT1-8" value="nav button" style="rounded=0;whiteSpace=wrap;html=1;" parent="EyfO6nV798qz1CIs0pT1-207" vertex="1">
          <mxGeometry x="270" y="90" width="120" height="60" as="geometry" />
        </mxCell>
        <mxCell id="EyfO6nV798qz1CIs0pT1-9" value="nav button" style="rounded=0;whiteSpace=wrap;html=1;" parent="EyfO6nV798qz1CIs0pT1-207" vertex="1">
          <mxGeometry x="750" y="90" width="120" height="60" as="geometry" />
        </mxCell>
        <mxCell id="EyfO6nV798qz1CIs0pT1-10" value="&lt;font style=&quot;font-size: 38px;&quot;&gt;Account page&lt;br&gt;&lt;/font&gt;" style="text;html=1;strokeColor=none;fillColor=none;align=center;verticalAlign=middle;whiteSpace=wrap;rounded=0;" parent="EyfO6nV798qz1CIs0pT1-207" vertex="1">
          <mxGeometry x="400" width="350" height="30" as="geometry" />
        </mxCell>
        <mxCell id="EyfO6nV798qz1CIs0pT1-11" value="" style="rounded=1;whiteSpace=wrap;html=1;fontSize=38;" parent="EyfO6nV798qz1CIs0pT1-207" vertex="1">
          <mxGeometry x="20" y="190" width="1110" height="150" as="geometry" />
        </mxCell>
        <mxCell id="EyfO6nV798qz1CIs0pT1-12" value="&lt;font style=&quot;font-size: 12px;&quot;&gt;image&lt;/font&gt;" style="ellipse;whiteSpace=wrap;html=1;aspect=fixed;fontSize=38;" parent="EyfO6nV798qz1CIs0pT1-207" vertex="1">
          <mxGeometry x="60" y="225" width="80" height="80" as="geometry" />
        </mxCell>
        <mxCell id="EyfO6nV798qz1CIs0pT1-16" value="button" style="rounded=1;whiteSpace=wrap;html=1;fontSize=12;" parent="EyfO6nV798qz1CIs0pT1-207" vertex="1">
          <mxGeometry x="860" y="225" width="120" height="35" as="geometry" />
        </mxCell>
        <mxCell id="EyfO6nV798qz1CIs0pT1-17" value="button" style="rounded=1;whiteSpace=wrap;html=1;fontSize=12;" parent="EyfO6nV798qz1CIs0pT1-207" vertex="1">
          <mxGeometry x="860" y="280" width="120" height="35" as="geometry" />
        </mxCell>
        <mxCell id="EyfO6nV798qz1CIs0pT1-18" value="button" style="ellipse;whiteSpace=wrap;html=1;aspect=fixed;fontSize=12;" parent="EyfO6nV798qz1CIs0pT1-207" vertex="1">
          <mxGeometry x="1050" y="257.5" width="30" height="30" as="geometry" />
        </mxCell>
        <mxCell id="EyfO6nV798qz1CIs0pT1-37" value="text" style="rounded=0;whiteSpace=wrap;html=1;fontSize=12;" parent="EyfO6nV798qz1CIs0pT1-207" vertex="1">
          <mxGeometry x="610" y="215" width="90" height="20" as="geometry" />
        </mxCell>
        <mxCell id="EyfO6nV798qz1CIs0pT1-39" value="text" style="rounded=0;whiteSpace=wrap;html=1;fontSize=12;" parent="EyfO6nV798qz1CIs0pT1-207" vertex="1">
          <mxGeometry x="560" y="250" width="90" height="20" as="geometry" />
        </mxCell>
        <mxCell id="EyfO6nV798qz1CIs0pT1-40" value="text" style="rounded=0;whiteSpace=wrap;html=1;fontSize=12;" parent="EyfO6nV798qz1CIs0pT1-207" vertex="1">
          <mxGeometry x="660" y="250" width="90" height="20" as="geometry" />
        </mxCell>
        <mxCell id="EyfO6nV798qz1CIs0pT1-41" value="text" style="rounded=0;whiteSpace=wrap;html=1;fontSize=12;" parent="EyfO6nV798qz1CIs0pT1-207" vertex="1">
          <mxGeometry x="560" y="275" width="90" height="20" as="geometry" />
        </mxCell>
        <mxCell id="EyfO6nV798qz1CIs0pT1-42" value="text" style="rounded=0;whiteSpace=wrap;html=1;fontSize=12;" parent="EyfO6nV798qz1CIs0pT1-207" vertex="1">
          <mxGeometry x="660" y="275" width="90" height="20" as="geometry" />
        </mxCell>
        <mxCell id="EyfO6nV798qz1CIs0pT1-43" value="text" style="rounded=0;whiteSpace=wrap;html=1;fontSize=12;" parent="EyfO6nV798qz1CIs0pT1-207" vertex="1">
          <mxGeometry x="560" y="305" width="90" height="20" as="geometry" />
        </mxCell>
        <mxCell id="EyfO6nV798qz1CIs0pT1-44" value="text" style="rounded=0;whiteSpace=wrap;html=1;fontSize=12;" parent="EyfO6nV798qz1CIs0pT1-207" vertex="1">
          <mxGeometry x="660" y="305" width="90" height="20" as="geometry" />
        </mxCell>
        <mxCell id="EyfO6nV798qz1CIs0pT1-45" value="text" style="rounded=0;whiteSpace=wrap;html=1;fontSize=12;" parent="EyfO6nV798qz1CIs0pT1-207" vertex="1">
          <mxGeometry x="270" y="230" width="90" height="20" as="geometry" />
        </mxCell>
        <mxCell id="EyfO6nV798qz1CIs0pT1-46" value="text" style="rounded=0;whiteSpace=wrap;html=1;fontSize=12;" parent="EyfO6nV798qz1CIs0pT1-207" vertex="1">
          <mxGeometry x="240" y="257.5" width="150" height="60" as="geometry" />
        </mxCell>
        <mxCell id="EyfO6nV798qz1CIs0pT1-208" value="" style="group" parent="1" vertex="1" connectable="0">
          <mxGeometry x="1250" y="-250" width="1160" height="730" as="geometry" />
        </mxCell>
        <mxCell id="EyfO6nV798qz1CIs0pT1-19" value="" style="rounded=0;whiteSpace=wrap;html=1;" parent="EyfO6nV798qz1CIs0pT1-208" vertex="1">
          <mxGeometry y="50" width="1160" height="680" as="geometry" />
        </mxCell>
        <mxCell id="EyfO6nV798qz1CIs0pT1-20" value="" style="rounded=0;whiteSpace=wrap;html=1;" parent="EyfO6nV798qz1CIs0pT1-208" vertex="1">
          <mxGeometry x="20" y="70" width="1110" height="100" as="geometry" />
        </mxCell>
        <mxCell id="EyfO6nV798qz1CIs0pT1-21" value="nav button" style="rounded=0;whiteSpace=wrap;html=1;" parent="EyfO6nV798qz1CIs0pT1-208" vertex="1">
          <mxGeometry x="40" y="90" width="120" height="60" as="geometry" />
        </mxCell>
        <mxCell id="EyfO6nV798qz1CIs0pT1-22" value="nav button" style="rounded=0;whiteSpace=wrap;html=1;" parent="EyfO6nV798qz1CIs0pT1-208" vertex="1">
          <mxGeometry x="990" y="90" width="120" height="60" as="geometry" />
        </mxCell>
        <mxCell id="EyfO6nV798qz1CIs0pT1-23" value="nav button" style="rounded=0;whiteSpace=wrap;html=1;" parent="EyfO6nV798qz1CIs0pT1-208" vertex="1">
          <mxGeometry x="515" y="90" width="120" height="60" as="geometry" />
        </mxCell>
        <mxCell id="EyfO6nV798qz1CIs0pT1-24" value="nav button" style="rounded=0;whiteSpace=wrap;html=1;" parent="EyfO6nV798qz1CIs0pT1-208" vertex="1">
          <mxGeometry x="270" y="90" width="120" height="60" as="geometry" />
        </mxCell>
        <mxCell id="EyfO6nV798qz1CIs0pT1-25" value="nav button" style="rounded=0;whiteSpace=wrap;html=1;" parent="EyfO6nV798qz1CIs0pT1-208" vertex="1">
          <mxGeometry x="750" y="90" width="120" height="60" as="geometry" />
        </mxCell>
        <mxCell id="EyfO6nV798qz1CIs0pT1-26" value="&lt;font style=&quot;font-size: 38px;&quot;&gt;Sauce Finder Page&lt;br&gt;&lt;/font&gt;&lt;font style=&quot;font-size: 24px;&quot;&gt;(With Search results)&lt;/font&gt;" style="text;html=1;strokeColor=none;fillColor=none;align=center;verticalAlign=middle;whiteSpace=wrap;rounded=0;" parent="EyfO6nV798qz1CIs0pT1-208" vertex="1">
          <mxGeometry x="400" width="350" height="30" as="geometry" />
        </mxCell>
        <mxCell id="EyfO6nV798qz1CIs0pT1-27" value="" style="rounded=1;whiteSpace=wrap;html=1;fontSize=38;" parent="EyfO6nV798qz1CIs0pT1-208" vertex="1">
          <mxGeometry x="20" y="190" width="1120" height="470" as="geometry" />
        </mxCell>
        <mxCell id="EyfO6nV798qz1CIs0pT1-34" value="&lt;font style=&quot;font-size: 12px;&quot;&gt;image&lt;/font&gt;" style="rounded=1;whiteSpace=wrap;html=1;fontSize=38;" parent="EyfO6nV798qz1CIs0pT1-208" vertex="1">
          <mxGeometry x="230" y="295" width="130" height="115" as="geometry" />
        </mxCell>
        <mxCell id="EyfO6nV798qz1CIs0pT1-36" value="text" style="rounded=0;whiteSpace=wrap;html=1;fontSize=12;" parent="EyfO6nV798qz1CIs0pT1-208" vertex="1">
          <mxGeometry x="250" y="265" width="90" height="20" as="geometry" />
        </mxCell>
        <mxCell id="EyfO6nV798qz1CIs0pT1-49" value="text" style="rounded=0;whiteSpace=wrap;html=1;fontSize=12;" parent="EyfO6nV798qz1CIs0pT1-208" vertex="1">
          <mxGeometry x="250" y="420" width="90" height="20" as="geometry" />
        </mxCell>
        <mxCell id="EyfO6nV798qz1CIs0pT1-50" value="text" style="rounded=0;whiteSpace=wrap;html=1;fontSize=12;" parent="EyfO6nV798qz1CIs0pT1-208" vertex="1">
          <mxGeometry x="200" y="450" width="190" height="20" as="geometry" />
        </mxCell>
        <mxCell id="EyfO6nV798qz1CIs0pT1-51" value="text input" style="rounded=0;whiteSpace=wrap;html=1;fontSize=12;fontStyle=0" parent="EyfO6nV798qz1CIs0pT1-208" vertex="1">
          <mxGeometry x="250" y="480" width="90" height="20" as="geometry" />
        </mxCell>
        <mxCell id="EyfO6nV798qz1CIs0pT1-54" value="button" style="rounded=1;whiteSpace=wrap;html=1;fontSize=12;" parent="EyfO6nV798qz1CIs0pT1-208" vertex="1">
          <mxGeometry x="235" y="510" width="120" height="35" as="geometry" />
        </mxCell>
        <mxCell id="EyfO6nV798qz1CIs0pT1-55" value="text" style="rounded=0;whiteSpace=wrap;html=1;fontSize=12;" parent="EyfO6nV798qz1CIs0pT1-208" vertex="1">
          <mxGeometry x="740" y="205" width="90" height="20" as="geometry" />
        </mxCell>
        <mxCell id="EyfO6nV798qz1CIs0pT1-56" value="text" style="rounded=0;whiteSpace=wrap;html=1;fontSize=12;" parent="EyfO6nV798qz1CIs0pT1-208" vertex="1">
          <mxGeometry x="680" y="237.5" width="210" height="20" as="geometry" />
        </mxCell>
        <mxCell id="EyfO6nV798qz1CIs0pT1-58" value="button" style="rounded=1;whiteSpace=wrap;html=1;fontSize=12;" parent="EyfO6nV798qz1CIs0pT1-208" vertex="1">
          <mxGeometry x="747.5" y="265" width="75" height="15" as="geometry" />
        </mxCell>
        <mxCell id="EyfO6nV798qz1CIs0pT1-64" value="" style="group" parent="EyfO6nV798qz1CIs0pT1-208" vertex="1" connectable="0">
          <mxGeometry x="530" y="290" width="110" height="170" as="geometry" />
        </mxCell>
        <mxCell id="EyfO6nV798qz1CIs0pT1-59" value="" style="rounded=1;whiteSpace=wrap;html=1;fontSize=12;" parent="EyfO6nV798qz1CIs0pT1-64" vertex="1">
          <mxGeometry width="110" height="170" as="geometry" />
        </mxCell>
        <mxCell id="EyfO6nV798qz1CIs0pT1-60" value="text" style="rounded=0;whiteSpace=wrap;html=1;fontSize=12;" parent="EyfO6nV798qz1CIs0pT1-64" vertex="1">
          <mxGeometry x="10" y="15" width="90" height="20" as="geometry" />
        </mxCell>
        <mxCell id="EyfO6nV798qz1CIs0pT1-61" value="&lt;font style=&quot;font-size: 12px;&quot;&gt;image&lt;/font&gt;" style="rounded=1;whiteSpace=wrap;html=1;fontSize=38;" parent="EyfO6nV798qz1CIs0pT1-64" vertex="1">
          <mxGeometry x="10" y="45" width="90" height="45" as="geometry" />
        </mxCell>
        <mxCell id="EyfO6nV798qz1CIs0pT1-62" value="text" style="rounded=0;whiteSpace=wrap;html=1;fontSize=12;" parent="EyfO6nV798qz1CIs0pT1-64" vertex="1">
          <mxGeometry x="10" y="100" width="90" height="20" as="geometry" />
        </mxCell>
        <mxCell id="EyfO6nV798qz1CIs0pT1-63" value="button" style="rounded=1;whiteSpace=wrap;html=1;fontSize=12;" parent="EyfO6nV798qz1CIs0pT1-64" vertex="1">
          <mxGeometry x="13.75" y="130" width="82.5" height="30" as="geometry" />
        </mxCell>
        <mxCell id="EyfO6nV798qz1CIs0pT1-65" value="" style="group" parent="EyfO6nV798qz1CIs0pT1-208" vertex="1" connectable="0">
          <mxGeometry x="670" y="290" width="110" height="170" as="geometry" />
        </mxCell>
        <mxCell id="EyfO6nV798qz1CIs0pT1-66" value="" style="rounded=1;whiteSpace=wrap;html=1;fontSize=12;" parent="EyfO6nV798qz1CIs0pT1-65" vertex="1">
          <mxGeometry width="110" height="170" as="geometry" />
        </mxCell>
        <mxCell id="EyfO6nV798qz1CIs0pT1-67" value="text" style="rounded=0;whiteSpace=wrap;html=1;fontSize=12;" parent="EyfO6nV798qz1CIs0pT1-65" vertex="1">
          <mxGeometry x="10" y="15" width="90" height="20" as="geometry" />
        </mxCell>
        <mxCell id="EyfO6nV798qz1CIs0pT1-68" value="&lt;font style=&quot;font-size: 12px;&quot;&gt;image&lt;/font&gt;" style="rounded=1;whiteSpace=wrap;html=1;fontSize=38;" parent="EyfO6nV798qz1CIs0pT1-65" vertex="1">
          <mxGeometry x="10" y="45" width="90" height="45" as="geometry" />
        </mxCell>
        <mxCell id="EyfO6nV798qz1CIs0pT1-69" value="text" style="rounded=0;whiteSpace=wrap;html=1;fontSize=12;" parent="EyfO6nV798qz1CIs0pT1-65" vertex="1">
          <mxGeometry x="10" y="100" width="90" height="20" as="geometry" />
        </mxCell>
        <mxCell id="EyfO6nV798qz1CIs0pT1-70" value="button" style="rounded=1;whiteSpace=wrap;html=1;fontSize=12;" parent="EyfO6nV798qz1CIs0pT1-65" vertex="1">
          <mxGeometry x="13.75" y="130" width="82.5" height="30" as="geometry" />
        </mxCell>
        <mxCell id="EyfO6nV798qz1CIs0pT1-71" value="" style="group" parent="EyfO6nV798qz1CIs0pT1-208" vertex="1" connectable="0">
          <mxGeometry x="810" y="287.5" width="110" height="170" as="geometry" />
        </mxCell>
        <mxCell id="EyfO6nV798qz1CIs0pT1-72" value="" style="rounded=1;whiteSpace=wrap;html=1;fontSize=12;" parent="EyfO6nV798qz1CIs0pT1-71" vertex="1">
          <mxGeometry width="110" height="170" as="geometry" />
        </mxCell>
        <mxCell id="EyfO6nV798qz1CIs0pT1-73" value="text" style="rounded=0;whiteSpace=wrap;html=1;fontSize=12;" parent="EyfO6nV798qz1CIs0pT1-71" vertex="1">
          <mxGeometry x="10" y="15" width="90" height="20" as="geometry" />
        </mxCell>
        <mxCell id="EyfO6nV798qz1CIs0pT1-74" value="&lt;font style=&quot;font-size: 12px;&quot;&gt;image&lt;/font&gt;" style="rounded=1;whiteSpace=wrap;html=1;fontSize=38;" parent="EyfO6nV798qz1CIs0pT1-71" vertex="1">
          <mxGeometry x="10" y="45" width="90" height="45" as="geometry" />
        </mxCell>
        <mxCell id="EyfO6nV798qz1CIs0pT1-75" value="text" style="rounded=0;whiteSpace=wrap;html=1;fontSize=12;" parent="EyfO6nV798qz1CIs0pT1-71" vertex="1">
          <mxGeometry x="10" y="100" width="90" height="20" as="geometry" />
        </mxCell>
        <mxCell id="EyfO6nV798qz1CIs0pT1-76" value="button" style="rounded=1;whiteSpace=wrap;html=1;fontSize=12;" parent="EyfO6nV798qz1CIs0pT1-71" vertex="1">
          <mxGeometry x="13.75" y="130" width="82.5" height="30" as="geometry" />
        </mxCell>
        <mxCell id="EyfO6nV798qz1CIs0pT1-77" value="" style="group" parent="EyfO6nV798qz1CIs0pT1-208" vertex="1" connectable="0">
          <mxGeometry x="950" y="287.5" width="110" height="170" as="geometry" />
        </mxCell>
        <mxCell id="EyfO6nV798qz1CIs0pT1-78" value="" style="rounded=1;whiteSpace=wrap;html=1;fontSize=12;" parent="EyfO6nV798qz1CIs0pT1-77" vertex="1">
          <mxGeometry width="110" height="170" as="geometry" />
        </mxCell>
        <mxCell id="EyfO6nV798qz1CIs0pT1-79" value="text" style="rounded=0;whiteSpace=wrap;html=1;fontSize=12;" parent="EyfO6nV798qz1CIs0pT1-77" vertex="1">
          <mxGeometry x="10" y="15" width="90" height="20" as="geometry" />
        </mxCell>
        <mxCell id="EyfO6nV798qz1CIs0pT1-80" value="&lt;font style=&quot;font-size: 12px;&quot;&gt;image&lt;/font&gt;" style="rounded=1;whiteSpace=wrap;html=1;fontSize=38;" parent="EyfO6nV798qz1CIs0pT1-77" vertex="1">
          <mxGeometry x="10" y="45" width="90" height="45" as="geometry" />
        </mxCell>
        <mxCell id="EyfO6nV798qz1CIs0pT1-81" value="text" style="rounded=0;whiteSpace=wrap;html=1;fontSize=12;" parent="EyfO6nV798qz1CIs0pT1-77" vertex="1">
          <mxGeometry x="10" y="100" width="90" height="20" as="geometry" />
        </mxCell>
        <mxCell id="EyfO6nV798qz1CIs0pT1-82" value="button" style="rounded=1;whiteSpace=wrap;html=1;fontSize=12;" parent="EyfO6nV798qz1CIs0pT1-77" vertex="1">
          <mxGeometry x="13.75" y="130" width="82.5" height="30" as="geometry" />
        </mxCell>
        <mxCell id="EyfO6nV798qz1CIs0pT1-83" value="" style="group" parent="EyfO6nV798qz1CIs0pT1-208" vertex="1" connectable="0">
          <mxGeometry x="530" y="480" width="110" height="170" as="geometry" />
        </mxCell>
        <mxCell id="EyfO6nV798qz1CIs0pT1-84" value="" style="rounded=1;whiteSpace=wrap;html=1;fontSize=12;" parent="EyfO6nV798qz1CIs0pT1-83" vertex="1">
          <mxGeometry width="110" height="170" as="geometry" />
        </mxCell>
        <mxCell id="EyfO6nV798qz1CIs0pT1-85" value="text" style="rounded=0;whiteSpace=wrap;html=1;fontSize=12;" parent="EyfO6nV798qz1CIs0pT1-83" vertex="1">
          <mxGeometry x="10" y="15" width="90" height="20" as="geometry" />
        </mxCell>
        <mxCell id="EyfO6nV798qz1CIs0pT1-86" value="&lt;font style=&quot;font-size: 12px;&quot;&gt;image&lt;/font&gt;" style="rounded=1;whiteSpace=wrap;html=1;fontSize=38;" parent="EyfO6nV798qz1CIs0pT1-83" vertex="1">
          <mxGeometry x="10" y="45" width="90" height="45" as="geometry" />
        </mxCell>
        <mxCell id="EyfO6nV798qz1CIs0pT1-87" value="text" style="rounded=0;whiteSpace=wrap;html=1;fontSize=12;" parent="EyfO6nV798qz1CIs0pT1-83" vertex="1">
          <mxGeometry x="10" y="100" width="90" height="20" as="geometry" />
        </mxCell>
        <mxCell id="EyfO6nV798qz1CIs0pT1-88" value="button" style="rounded=1;whiteSpace=wrap;html=1;fontSize=12;" parent="EyfO6nV798qz1CIs0pT1-83" vertex="1">
          <mxGeometry x="13.75" y="130" width="82.5" height="30" as="geometry" />
        </mxCell>
        <mxCell id="EyfO6nV798qz1CIs0pT1-90" value="" style="group" parent="EyfO6nV798qz1CIs0pT1-208" vertex="1" connectable="0">
          <mxGeometry x="670" y="480" width="110" height="170" as="geometry" />
        </mxCell>
        <mxCell id="EyfO6nV798qz1CIs0pT1-91" value="" style="rounded=1;whiteSpace=wrap;html=1;fontSize=12;" parent="EyfO6nV798qz1CIs0pT1-90" vertex="1">
          <mxGeometry width="110" height="170" as="geometry" />
        </mxCell>
        <mxCell id="EyfO6nV798qz1CIs0pT1-92" value="text" style="rounded=0;whiteSpace=wrap;html=1;fontSize=12;" parent="EyfO6nV798qz1CIs0pT1-90" vertex="1">
          <mxGeometry x="10" y="15" width="90" height="20" as="geometry" />
        </mxCell>
        <mxCell id="EyfO6nV798qz1CIs0pT1-93" value="&lt;font style=&quot;font-size: 12px;&quot;&gt;image&lt;/font&gt;" style="rounded=1;whiteSpace=wrap;html=1;fontSize=38;" parent="EyfO6nV798qz1CIs0pT1-90" vertex="1">
          <mxGeometry x="10" y="45" width="90" height="45" as="geometry" />
        </mxCell>
        <mxCell id="EyfO6nV798qz1CIs0pT1-94" value="text" style="rounded=0;whiteSpace=wrap;html=1;fontSize=12;" parent="EyfO6nV798qz1CIs0pT1-90" vertex="1">
          <mxGeometry x="10" y="100" width="90" height="20" as="geometry" />
        </mxCell>
        <mxCell id="EyfO6nV798qz1CIs0pT1-95" value="button" style="rounded=1;whiteSpace=wrap;html=1;fontSize=12;" parent="EyfO6nV798qz1CIs0pT1-90" vertex="1">
          <mxGeometry x="13.75" y="130" width="82.5" height="30" as="geometry" />
        </mxCell>
        <mxCell id="EyfO6nV798qz1CIs0pT1-96" value="" style="group" parent="EyfO6nV798qz1CIs0pT1-208" vertex="1" connectable="0">
          <mxGeometry x="810" y="480" width="110" height="170" as="geometry" />
        </mxCell>
        <mxCell id="EyfO6nV798qz1CIs0pT1-97" value="" style="rounded=1;whiteSpace=wrap;html=1;fontSize=12;" parent="EyfO6nV798qz1CIs0pT1-96" vertex="1">
          <mxGeometry width="110" height="170" as="geometry" />
        </mxCell>
        <mxCell id="EyfO6nV798qz1CIs0pT1-98" value="text" style="rounded=0;whiteSpace=wrap;html=1;fontSize=12;" parent="EyfO6nV798qz1CIs0pT1-96" vertex="1">
          <mxGeometry x="10" y="15" width="90" height="20" as="geometry" />
        </mxCell>
        <mxCell id="EyfO6nV798qz1CIs0pT1-99" value="&lt;font style=&quot;font-size: 12px;&quot;&gt;image&lt;/font&gt;" style="rounded=1;whiteSpace=wrap;html=1;fontSize=38;" parent="EyfO6nV798qz1CIs0pT1-96" vertex="1">
          <mxGeometry x="10" y="45" width="90" height="45" as="geometry" />
        </mxCell>
        <mxCell id="EyfO6nV798qz1CIs0pT1-100" value="text" style="rounded=0;whiteSpace=wrap;html=1;fontSize=12;" parent="EyfO6nV798qz1CIs0pT1-96" vertex="1">
          <mxGeometry x="10" y="100" width="90" height="20" as="geometry" />
        </mxCell>
        <mxCell id="EyfO6nV798qz1CIs0pT1-101" value="button" style="rounded=1;whiteSpace=wrap;html=1;fontSize=12;" parent="EyfO6nV798qz1CIs0pT1-96" vertex="1">
          <mxGeometry x="13.75" y="130" width="82.5" height="30" as="geometry" />
        </mxCell>
        <mxCell id="EyfO6nV798qz1CIs0pT1-102" value="" style="group" parent="EyfO6nV798qz1CIs0pT1-208" vertex="1" connectable="0">
          <mxGeometry x="950" y="480" width="110" height="170" as="geometry" />
        </mxCell>
        <mxCell id="EyfO6nV798qz1CIs0pT1-103" value="" style="rounded=1;whiteSpace=wrap;html=1;fontSize=12;" parent="EyfO6nV798qz1CIs0pT1-102" vertex="1">
          <mxGeometry width="110" height="170" as="geometry" />
        </mxCell>
        <mxCell id="EyfO6nV798qz1CIs0pT1-104" value="text" style="rounded=0;whiteSpace=wrap;html=1;fontSize=12;" parent="EyfO6nV798qz1CIs0pT1-102" vertex="1">
          <mxGeometry x="10" y="15" width="90" height="20" as="geometry" />
        </mxCell>
        <mxCell id="EyfO6nV798qz1CIs0pT1-105" value="&lt;font style=&quot;font-size: 12px;&quot;&gt;image&lt;/font&gt;" style="rounded=1;whiteSpace=wrap;html=1;fontSize=38;" parent="EyfO6nV798qz1CIs0pT1-102" vertex="1">
          <mxGeometry x="10" y="45" width="90" height="45" as="geometry" />
        </mxCell>
        <mxCell id="EyfO6nV798qz1CIs0pT1-106" value="text" style="rounded=0;whiteSpace=wrap;html=1;fontSize=12;" parent="EyfO6nV798qz1CIs0pT1-102" vertex="1">
          <mxGeometry x="10" y="100" width="90" height="20" as="geometry" />
        </mxCell>
        <mxCell id="EyfO6nV798qz1CIs0pT1-107" value="button" style="rounded=1;whiteSpace=wrap;html=1;fontSize=12;" parent="EyfO6nV798qz1CIs0pT1-102" vertex="1">
          <mxGeometry x="13.75" y="130" width="82.5" height="30" as="geometry" />
        </mxCell>
        <mxCell id="EyfO6nV798qz1CIs0pT1-210" value="" style="group" parent="1" vertex="1" connectable="0">
          <mxGeometry x="2480" y="-1070" width="1160" height="730" as="geometry" />
        </mxCell>
        <mxCell id="EyfO6nV798qz1CIs0pT1-108" value="" style="rounded=0;whiteSpace=wrap;html=1;" parent="EyfO6nV798qz1CIs0pT1-210" vertex="1">
          <mxGeometry y="50" width="1160" height="680" as="geometry" />
        </mxCell>
        <mxCell id="EyfO6nV798qz1CIs0pT1-109" value="" style="rounded=0;whiteSpace=wrap;html=1;" parent="EyfO6nV798qz1CIs0pT1-210" vertex="1">
          <mxGeometry x="20" y="70" width="1110" height="100" as="geometry" />
        </mxCell>
        <mxCell id="EyfO6nV798qz1CIs0pT1-110" value="nav button" style="rounded=0;whiteSpace=wrap;html=1;" parent="EyfO6nV798qz1CIs0pT1-210" vertex="1">
          <mxGeometry x="40" y="90" width="120" height="60" as="geometry" />
        </mxCell>
        <mxCell id="EyfO6nV798qz1CIs0pT1-111" value="nav button" style="rounded=0;whiteSpace=wrap;html=1;" parent="EyfO6nV798qz1CIs0pT1-210" vertex="1">
          <mxGeometry x="990" y="90" width="120" height="60" as="geometry" />
        </mxCell>
        <mxCell id="EyfO6nV798qz1CIs0pT1-112" value="nav button" style="rounded=0;whiteSpace=wrap;html=1;" parent="EyfO6nV798qz1CIs0pT1-210" vertex="1">
          <mxGeometry x="515" y="90" width="120" height="60" as="geometry" />
        </mxCell>
        <mxCell id="EyfO6nV798qz1CIs0pT1-113" value="nav button" style="rounded=0;whiteSpace=wrap;html=1;" parent="EyfO6nV798qz1CIs0pT1-210" vertex="1">
          <mxGeometry x="270" y="90" width="120" height="60" as="geometry" />
        </mxCell>
        <mxCell id="EyfO6nV798qz1CIs0pT1-114" value="nav button" style="rounded=0;whiteSpace=wrap;html=1;" parent="EyfO6nV798qz1CIs0pT1-210" vertex="1">
          <mxGeometry x="750" y="90" width="120" height="60" as="geometry" />
        </mxCell>
        <mxCell id="EyfO6nV798qz1CIs0pT1-115" value="&lt;font style=&quot;font-size: 35px;&quot;&gt;Calendar Page (month view)&lt;br&gt;&lt;/font&gt;" style="text;html=1;strokeColor=none;fillColor=none;align=center;verticalAlign=middle;whiteSpace=wrap;rounded=0;" parent="EyfO6nV798qz1CIs0pT1-210" vertex="1">
          <mxGeometry x="400" width="350" height="30" as="geometry" />
        </mxCell>
        <mxCell id="EyfO6nV798qz1CIs0pT1-116" value="" style="rounded=1;whiteSpace=wrap;html=1;fontSize=38;" parent="EyfO6nV798qz1CIs0pT1-210" vertex="1">
          <mxGeometry x="20" y="190" width="1110" height="520" as="geometry" />
        </mxCell>
        <mxCell id="EyfO6nV798qz1CIs0pT1-123" value="text" style="rounded=0;whiteSpace=wrap;html=1;fontSize=12;" parent="EyfO6nV798qz1CIs0pT1-210" vertex="1">
          <mxGeometry x="45" y="260" width="110" height="40" as="geometry" />
        </mxCell>
        <mxCell id="EyfO6nV798qz1CIs0pT1-130" value="text" style="rounded=0;whiteSpace=wrap;html=1;fontSize=12;" parent="EyfO6nV798qz1CIs0pT1-210" vertex="1">
          <mxGeometry x="1040" y="190" width="90" height="55" as="geometry" />
        </mxCell>
        <mxCell id="EyfO6nV798qz1CIs0pT1-131" value="text" style="rounded=0;whiteSpace=wrap;html=1;fontSize=12;" parent="EyfO6nV798qz1CIs0pT1-210" vertex="1">
          <mxGeometry x="190" y="260" width="110" height="40" as="geometry" />
        </mxCell>
        <mxCell id="EyfO6nV798qz1CIs0pT1-132" value="text" style="rounded=0;whiteSpace=wrap;html=1;fontSize=12;" parent="EyfO6nV798qz1CIs0pT1-210" vertex="1">
          <mxGeometry x="350" y="260" width="110" height="40" as="geometry" />
        </mxCell>
        <mxCell id="EyfO6nV798qz1CIs0pT1-133" value="text" style="rounded=0;whiteSpace=wrap;html=1;fontSize=12;" parent="EyfO6nV798qz1CIs0pT1-210" vertex="1">
          <mxGeometry x="670" y="260" width="110" height="40" as="geometry" />
        </mxCell>
        <mxCell id="EyfO6nV798qz1CIs0pT1-134" value="text" style="rounded=0;whiteSpace=wrap;html=1;fontSize=12;" parent="EyfO6nV798qz1CIs0pT1-210" vertex="1">
          <mxGeometry x="820" y="260" width="110" height="40" as="geometry" />
        </mxCell>
        <mxCell id="EyfO6nV798qz1CIs0pT1-135" value="text" style="rounded=0;whiteSpace=wrap;html=1;fontSize=12;" parent="EyfO6nV798qz1CIs0pT1-210" vertex="1">
          <mxGeometry x="980" y="260" width="110" height="40" as="geometry" />
        </mxCell>
        <mxCell id="EyfO6nV798qz1CIs0pT1-136" value="text" style="rounded=0;whiteSpace=wrap;html=1;fontSize=12;" parent="EyfO6nV798qz1CIs0pT1-210" vertex="1">
          <mxGeometry x="510" y="260" width="110" height="40" as="geometry" />
        </mxCell>
        <mxCell id="EyfO6nV798qz1CIs0pT1-161" value="" style="group" parent="EyfO6nV798qz1CIs0pT1-210" vertex="1" connectable="0">
          <mxGeometry x="57.5" y="335" width="85" height="325" as="geometry" />
        </mxCell>
        <mxCell id="EyfO6nV798qz1CIs0pT1-137" value="button" style="rounded=0;whiteSpace=wrap;html=1;fontSize=12;" parent="EyfO6nV798qz1CIs0pT1-161" vertex="1">
          <mxGeometry width="85" height="25" as="geometry" />
        </mxCell>
        <mxCell id="EyfO6nV798qz1CIs0pT1-147" value="button" style="rounded=0;whiteSpace=wrap;html=1;fontSize=12;" parent="EyfO6nV798qz1CIs0pT1-161" vertex="1">
          <mxGeometry y="60" width="85" height="25" as="geometry" />
        </mxCell>
        <mxCell id="EyfO6nV798qz1CIs0pT1-148" value="button" style="rounded=0;whiteSpace=wrap;html=1;fontSize=12;" parent="EyfO6nV798qz1CIs0pT1-161" vertex="1">
          <mxGeometry y="120" width="85" height="25" as="geometry" />
        </mxCell>
        <mxCell id="EyfO6nV798qz1CIs0pT1-149" value="button" style="rounded=0;whiteSpace=wrap;html=1;fontSize=12;" parent="EyfO6nV798qz1CIs0pT1-161" vertex="1">
          <mxGeometry y="185" width="85" height="25" as="geometry" />
        </mxCell>
        <mxCell id="EyfO6nV798qz1CIs0pT1-150" value="button" style="rounded=0;whiteSpace=wrap;html=1;fontSize=12;" parent="EyfO6nV798qz1CIs0pT1-161" vertex="1">
          <mxGeometry y="245" width="85" height="25" as="geometry" />
        </mxCell>
        <mxCell id="EyfO6nV798qz1CIs0pT1-151" value="button" style="rounded=0;whiteSpace=wrap;html=1;fontSize=12;" parent="EyfO6nV798qz1CIs0pT1-161" vertex="1">
          <mxGeometry y="300" width="85" height="25" as="geometry" />
        </mxCell>
        <mxCell id="EyfO6nV798qz1CIs0pT1-162" value="" style="group" parent="EyfO6nV798qz1CIs0pT1-210" vertex="1" connectable="0">
          <mxGeometry x="210" y="335" width="85" height="325" as="geometry" />
        </mxCell>
        <mxCell id="EyfO6nV798qz1CIs0pT1-163" value="button" style="rounded=0;whiteSpace=wrap;html=1;fontSize=12;" parent="EyfO6nV798qz1CIs0pT1-162" vertex="1">
          <mxGeometry width="85" height="25" as="geometry" />
        </mxCell>
        <mxCell id="EyfO6nV798qz1CIs0pT1-164" value="button" style="rounded=0;whiteSpace=wrap;html=1;fontSize=12;" parent="EyfO6nV798qz1CIs0pT1-162" vertex="1">
          <mxGeometry y="60" width="85" height="25" as="geometry" />
        </mxCell>
        <mxCell id="EyfO6nV798qz1CIs0pT1-165" value="button" style="rounded=0;whiteSpace=wrap;html=1;fontSize=12;" parent="EyfO6nV798qz1CIs0pT1-162" vertex="1">
          <mxGeometry y="120" width="85" height="25" as="geometry" />
        </mxCell>
        <mxCell id="EyfO6nV798qz1CIs0pT1-166" value="button" style="rounded=0;whiteSpace=wrap;html=1;fontSize=12;" parent="EyfO6nV798qz1CIs0pT1-162" vertex="1">
          <mxGeometry y="185" width="85" height="25" as="geometry" />
        </mxCell>
        <mxCell id="EyfO6nV798qz1CIs0pT1-167" value="button" style="rounded=0;whiteSpace=wrap;html=1;fontSize=12;" parent="EyfO6nV798qz1CIs0pT1-162" vertex="1">
          <mxGeometry y="245" width="85" height="25" as="geometry" />
        </mxCell>
        <mxCell id="EyfO6nV798qz1CIs0pT1-168" value="button" style="rounded=0;whiteSpace=wrap;html=1;fontSize=12;" parent="EyfO6nV798qz1CIs0pT1-162" vertex="1">
          <mxGeometry y="300" width="85" height="25" as="geometry" />
        </mxCell>
        <mxCell id="EyfO6nV798qz1CIs0pT1-169" value="" style="group" parent="EyfO6nV798qz1CIs0pT1-210" vertex="1" connectable="0">
          <mxGeometry x="362.5" y="335" width="85" height="325" as="geometry" />
        </mxCell>
        <mxCell id="EyfO6nV798qz1CIs0pT1-170" value="button" style="rounded=0;whiteSpace=wrap;html=1;fontSize=12;" parent="EyfO6nV798qz1CIs0pT1-169" vertex="1">
          <mxGeometry width="85" height="25" as="geometry" />
        </mxCell>
        <mxCell id="EyfO6nV798qz1CIs0pT1-171" value="button" style="rounded=0;whiteSpace=wrap;html=1;fontSize=12;" parent="EyfO6nV798qz1CIs0pT1-169" vertex="1">
          <mxGeometry y="60" width="85" height="25" as="geometry" />
        </mxCell>
        <mxCell id="EyfO6nV798qz1CIs0pT1-172" value="button" style="rounded=0;whiteSpace=wrap;html=1;fontSize=12;" parent="EyfO6nV798qz1CIs0pT1-169" vertex="1">
          <mxGeometry y="120" width="85" height="25" as="geometry" />
        </mxCell>
        <mxCell id="EyfO6nV798qz1CIs0pT1-173" value="button" style="rounded=0;whiteSpace=wrap;html=1;fontSize=12;" parent="EyfO6nV798qz1CIs0pT1-169" vertex="1">
          <mxGeometry y="185" width="85" height="25" as="geometry" />
        </mxCell>
        <mxCell id="EyfO6nV798qz1CIs0pT1-174" value="button" style="rounded=0;whiteSpace=wrap;html=1;fontSize=12;" parent="EyfO6nV798qz1CIs0pT1-169" vertex="1">
          <mxGeometry y="245" width="85" height="25" as="geometry" />
        </mxCell>
        <mxCell id="EyfO6nV798qz1CIs0pT1-175" value="button" style="rounded=0;whiteSpace=wrap;html=1;fontSize=12;" parent="EyfO6nV798qz1CIs0pT1-169" vertex="1">
          <mxGeometry y="300" width="85" height="25" as="geometry" />
        </mxCell>
        <mxCell id="EyfO6nV798qz1CIs0pT1-176" value="" style="group" parent="EyfO6nV798qz1CIs0pT1-210" vertex="1" connectable="0">
          <mxGeometry x="532.5" y="335" width="85" height="325" as="geometry" />
        </mxCell>
        <mxCell id="EyfO6nV798qz1CIs0pT1-177" value="button" style="rounded=0;whiteSpace=wrap;html=1;fontSize=12;" parent="EyfO6nV798qz1CIs0pT1-176" vertex="1">
          <mxGeometry width="85" height="25" as="geometry" />
        </mxCell>
        <mxCell id="EyfO6nV798qz1CIs0pT1-178" value="button" style="rounded=0;whiteSpace=wrap;html=1;fontSize=12;" parent="EyfO6nV798qz1CIs0pT1-176" vertex="1">
          <mxGeometry y="60" width="85" height="25" as="geometry" />
        </mxCell>
        <mxCell id="EyfO6nV798qz1CIs0pT1-179" value="button" style="rounded=0;whiteSpace=wrap;html=1;fontSize=12;" parent="EyfO6nV798qz1CIs0pT1-176" vertex="1">
          <mxGeometry y="120" width="85" height="25" as="geometry" />
        </mxCell>
        <mxCell id="EyfO6nV798qz1CIs0pT1-180" value="button" style="rounded=0;whiteSpace=wrap;html=1;fontSize=12;" parent="EyfO6nV798qz1CIs0pT1-176" vertex="1">
          <mxGeometry y="185" width="85" height="25" as="geometry" />
        </mxCell>
        <mxCell id="EyfO6nV798qz1CIs0pT1-181" value="button" style="rounded=0;whiteSpace=wrap;html=1;fontSize=12;" parent="EyfO6nV798qz1CIs0pT1-176" vertex="1">
          <mxGeometry y="245" width="85" height="25" as="geometry" />
        </mxCell>
        <mxCell id="EyfO6nV798qz1CIs0pT1-182" value="button" style="rounded=0;whiteSpace=wrap;html=1;fontSize=12;" parent="EyfO6nV798qz1CIs0pT1-176" vertex="1">
          <mxGeometry y="300" width="85" height="25" as="geometry" />
        </mxCell>
        <mxCell id="EyfO6nV798qz1CIs0pT1-183" value="" style="group" parent="EyfO6nV798qz1CIs0pT1-210" vertex="1" connectable="0">
          <mxGeometry x="682.5" y="335" width="85" height="325" as="geometry" />
        </mxCell>
        <mxCell id="EyfO6nV798qz1CIs0pT1-184" value="button" style="rounded=0;whiteSpace=wrap;html=1;fontSize=12;" parent="EyfO6nV798qz1CIs0pT1-183" vertex="1">
          <mxGeometry width="85" height="25" as="geometry" />
        </mxCell>
        <mxCell id="EyfO6nV798qz1CIs0pT1-185" value="button" style="rounded=0;whiteSpace=wrap;html=1;fontSize=12;" parent="EyfO6nV798qz1CIs0pT1-183" vertex="1">
          <mxGeometry y="60" width="85" height="25" as="geometry" />
        </mxCell>
        <mxCell id="EyfO6nV798qz1CIs0pT1-186" value="button" style="rounded=0;whiteSpace=wrap;html=1;fontSize=12;" parent="EyfO6nV798qz1CIs0pT1-183" vertex="1">
          <mxGeometry y="120" width="85" height="25" as="geometry" />
        </mxCell>
        <mxCell id="EyfO6nV798qz1CIs0pT1-187" value="button" style="rounded=0;whiteSpace=wrap;html=1;fontSize=12;" parent="EyfO6nV798qz1CIs0pT1-183" vertex="1">
          <mxGeometry y="185" width="85" height="25" as="geometry" />
        </mxCell>
        <mxCell id="EyfO6nV798qz1CIs0pT1-188" value="button" style="rounded=0;whiteSpace=wrap;html=1;fontSize=12;" parent="EyfO6nV798qz1CIs0pT1-183" vertex="1">
          <mxGeometry y="245" width="85" height="25" as="geometry" />
        </mxCell>
        <mxCell id="EyfO6nV798qz1CIs0pT1-189" value="button" style="rounded=0;whiteSpace=wrap;html=1;fontSize=12;" parent="EyfO6nV798qz1CIs0pT1-183" vertex="1">
          <mxGeometry y="300" width="85" height="25" as="geometry" />
        </mxCell>
        <mxCell id="EyfO6nV798qz1CIs0pT1-192" value="" style="group" parent="EyfO6nV798qz1CIs0pT1-210" vertex="1" connectable="0">
          <mxGeometry x="835" y="335" width="85" height="325" as="geometry" />
        </mxCell>
        <mxCell id="EyfO6nV798qz1CIs0pT1-193" value="button" style="rounded=0;whiteSpace=wrap;html=1;fontSize=12;" parent="EyfO6nV798qz1CIs0pT1-192" vertex="1">
          <mxGeometry width="85" height="25" as="geometry" />
        </mxCell>
        <mxCell id="EyfO6nV798qz1CIs0pT1-194" value="button" style="rounded=0;whiteSpace=wrap;html=1;fontSize=12;" parent="EyfO6nV798qz1CIs0pT1-192" vertex="1">
          <mxGeometry y="60" width="85" height="25" as="geometry" />
        </mxCell>
        <mxCell id="EyfO6nV798qz1CIs0pT1-195" value="button" style="rounded=0;whiteSpace=wrap;html=1;fontSize=12;" parent="EyfO6nV798qz1CIs0pT1-192" vertex="1">
          <mxGeometry y="120" width="85" height="25" as="geometry" />
        </mxCell>
        <mxCell id="EyfO6nV798qz1CIs0pT1-196" value="button" style="rounded=0;whiteSpace=wrap;html=1;fontSize=12;" parent="EyfO6nV798qz1CIs0pT1-192" vertex="1">
          <mxGeometry y="185" width="85" height="25" as="geometry" />
        </mxCell>
        <mxCell id="EyfO6nV798qz1CIs0pT1-197" value="button" style="rounded=0;whiteSpace=wrap;html=1;fontSize=12;" parent="EyfO6nV798qz1CIs0pT1-192" vertex="1">
          <mxGeometry y="245" width="85" height="25" as="geometry" />
        </mxCell>
        <mxCell id="EyfO6nV798qz1CIs0pT1-198" value="button" style="rounded=0;whiteSpace=wrap;html=1;fontSize=12;" parent="EyfO6nV798qz1CIs0pT1-192" vertex="1">
          <mxGeometry y="300" width="85" height="25" as="geometry" />
        </mxCell>
        <mxCell id="EyfO6nV798qz1CIs0pT1-199" value="" style="group" parent="EyfO6nV798qz1CIs0pT1-210" vertex="1" connectable="0">
          <mxGeometry x="992.5" y="335" width="85" height="325" as="geometry" />
        </mxCell>
        <mxCell id="EyfO6nV798qz1CIs0pT1-200" value="button" style="rounded=0;whiteSpace=wrap;html=1;fontSize=12;" parent="EyfO6nV798qz1CIs0pT1-199" vertex="1">
          <mxGeometry width="85" height="25" as="geometry" />
        </mxCell>
        <mxCell id="EyfO6nV798qz1CIs0pT1-201" value="button" style="rounded=0;whiteSpace=wrap;html=1;fontSize=12;" parent="EyfO6nV798qz1CIs0pT1-199" vertex="1">
          <mxGeometry y="60" width="85" height="25" as="geometry" />
        </mxCell>
        <mxCell id="EyfO6nV798qz1CIs0pT1-202" value="button" style="rounded=0;whiteSpace=wrap;html=1;fontSize=12;" parent="EyfO6nV798qz1CIs0pT1-199" vertex="1">
          <mxGeometry y="120" width="85" height="25" as="geometry" />
        </mxCell>
        <mxCell id="EyfO6nV798qz1CIs0pT1-203" value="button" style="rounded=0;whiteSpace=wrap;html=1;fontSize=12;" parent="EyfO6nV798qz1CIs0pT1-199" vertex="1">
          <mxGeometry y="185" width="85" height="25" as="geometry" />
        </mxCell>
        <mxCell id="EyfO6nV798qz1CIs0pT1-204" value="button" style="rounded=0;whiteSpace=wrap;html=1;fontSize=12;" parent="EyfO6nV798qz1CIs0pT1-199" vertex="1">
          <mxGeometry y="245" width="85" height="25" as="geometry" />
        </mxCell>
        <mxCell id="EyfO6nV798qz1CIs0pT1-205" value="button" style="rounded=0;whiteSpace=wrap;html=1;fontSize=12;" parent="EyfO6nV798qz1CIs0pT1-199" vertex="1">
          <mxGeometry y="300" width="85" height="25" as="geometry" />
        </mxCell>
        <mxCell id="EyfO6nV798qz1CIs0pT1-211" value="" style="group" parent="1" vertex="1" connectable="0">
          <mxGeometry x="2500" y="-280" width="1160" height="790" as="geometry" />
        </mxCell>
        <mxCell id="EyfO6nV798qz1CIs0pT1-212" value="" style="rounded=0;whiteSpace=wrap;html=1;" parent="EyfO6nV798qz1CIs0pT1-211" vertex="1">
          <mxGeometry y="50" width="1160" height="740" as="geometry" />
        </mxCell>
        <mxCell id="EyfO6nV798qz1CIs0pT1-213" value="" style="rounded=0;whiteSpace=wrap;html=1;" parent="EyfO6nV798qz1CIs0pT1-211" vertex="1">
          <mxGeometry x="20" y="70" width="1110" height="100" as="geometry" />
        </mxCell>
        <mxCell id="EyfO6nV798qz1CIs0pT1-214" value="nav button" style="rounded=0;whiteSpace=wrap;html=1;" parent="EyfO6nV798qz1CIs0pT1-211" vertex="1">
          <mxGeometry x="40" y="90" width="120" height="60" as="geometry" />
        </mxCell>
        <mxCell id="EyfO6nV798qz1CIs0pT1-215" value="nav button" style="rounded=0;whiteSpace=wrap;html=1;" parent="EyfO6nV798qz1CIs0pT1-211" vertex="1">
          <mxGeometry x="990" y="90" width="120" height="60" as="geometry" />
        </mxCell>
        <mxCell id="EyfO6nV798qz1CIs0pT1-216" value="nav button" style="rounded=0;whiteSpace=wrap;html=1;" parent="EyfO6nV798qz1CIs0pT1-211" vertex="1">
          <mxGeometry x="515" y="90" width="120" height="60" as="geometry" />
        </mxCell>
        <mxCell id="EyfO6nV798qz1CIs0pT1-217" value="nav button" style="rounded=0;whiteSpace=wrap;html=1;" parent="EyfO6nV798qz1CIs0pT1-211" vertex="1">
          <mxGeometry x="270" y="90" width="120" height="60" as="geometry" />
        </mxCell>
        <mxCell id="EyfO6nV798qz1CIs0pT1-218" value="nav button" style="rounded=0;whiteSpace=wrap;html=1;" parent="EyfO6nV798qz1CIs0pT1-211" vertex="1">
          <mxGeometry x="750" y="90" width="120" height="60" as="geometry" />
        </mxCell>
        <mxCell id="EyfO6nV798qz1CIs0pT1-219" value="&lt;font style=&quot;font-size: 35px;&quot;&gt;Calendar Page (week view)&lt;br&gt;&lt;/font&gt;" style="text;html=1;strokeColor=none;fillColor=none;align=center;verticalAlign=middle;whiteSpace=wrap;rounded=0;" parent="EyfO6nV798qz1CIs0pT1-211" vertex="1">
          <mxGeometry x="400" width="310" height="30" as="geometry" />
        </mxCell>
        <mxCell id="EyfO6nV798qz1CIs0pT1-220" value="" style="rounded=1;whiteSpace=wrap;html=1;fontSize=38;" parent="EyfO6nV798qz1CIs0pT1-211" vertex="1">
          <mxGeometry x="20" y="190" width="1110" height="590" as="geometry" />
        </mxCell>
        <mxCell id="EyfO6nV798qz1CIs0pT1-221" value="text" style="rounded=0;whiteSpace=wrap;html=1;fontSize=12;" parent="EyfO6nV798qz1CIs0pT1-211" vertex="1">
          <mxGeometry x="45" y="268" width="110" height="20" as="geometry" />
        </mxCell>
        <mxCell id="EyfO6nV798qz1CIs0pT1-222" value="text" style="rounded=0;whiteSpace=wrap;html=1;fontSize=12;" parent="EyfO6nV798qz1CIs0pT1-211" vertex="1">
          <mxGeometry x="1040" y="190" width="90" height="55" as="geometry" />
        </mxCell>
        <mxCell id="EyfO6nV798qz1CIs0pT1-223" value="text" style="rounded=0;whiteSpace=wrap;html=1;fontSize=12;" parent="EyfO6nV798qz1CIs0pT1-211" vertex="1">
          <mxGeometry x="190" y="268" width="110" height="20" as="geometry" />
        </mxCell>
        <mxCell id="EyfO6nV798qz1CIs0pT1-224" value="text" style="rounded=0;whiteSpace=wrap;html=1;fontSize=12;" parent="EyfO6nV798qz1CIs0pT1-211" vertex="1">
          <mxGeometry x="350" y="268" width="110" height="20" as="geometry" />
        </mxCell>
        <mxCell id="EyfO6nV798qz1CIs0pT1-225" value="text" style="rounded=0;whiteSpace=wrap;html=1;fontSize=12;" parent="EyfO6nV798qz1CIs0pT1-211" vertex="1">
          <mxGeometry x="670" y="268" width="110" height="20" as="geometry" />
        </mxCell>
        <mxCell id="EyfO6nV798qz1CIs0pT1-226" value="text" style="rounded=0;whiteSpace=wrap;html=1;fontSize=12;" parent="EyfO6nV798qz1CIs0pT1-211" vertex="1">
          <mxGeometry x="820" y="268" width="110" height="20" as="geometry" />
        </mxCell>
        <mxCell id="EyfO6nV798qz1CIs0pT1-227" value="text" style="rounded=0;whiteSpace=wrap;html=1;fontSize=12;" parent="EyfO6nV798qz1CIs0pT1-211" vertex="1">
          <mxGeometry x="980" y="268" width="110" height="20" as="geometry" />
        </mxCell>
        <mxCell id="EyfO6nV798qz1CIs0pT1-228" value="text" style="rounded=0;whiteSpace=wrap;html=1;fontSize=12;" parent="EyfO6nV798qz1CIs0pT1-211" vertex="1">
          <mxGeometry x="510" y="268" width="110" height="20" as="geometry" />
        </mxCell>
        <mxCell id="EyfO6nV798qz1CIs0pT1-296" value="button" style="rounded=0;whiteSpace=wrap;html=1;fontSize=12;" parent="EyfO6nV798qz1CIs0pT1-211" vertex="1">
          <mxGeometry x="20" y="190" width="90" height="30" as="geometry" />
        </mxCell>
        <mxCell id="EyfO6nV798qz1CIs0pT1-297" value="text" style="rounded=0;whiteSpace=wrap;html=1;fontSize=12;" parent="EyfO6nV798qz1CIs0pT1-211" vertex="1">
          <mxGeometry x="45" y="290" width="110" height="20" as="geometry" />
        </mxCell>
        <mxCell id="EyfO6nV798qz1CIs0pT1-298" value="text" style="rounded=0;whiteSpace=wrap;html=1;fontSize=12;" parent="EyfO6nV798qz1CIs0pT1-211" vertex="1">
          <mxGeometry x="190" y="290" width="110" height="20" as="geometry" />
        </mxCell>
        <mxCell id="EyfO6nV798qz1CIs0pT1-299" value="text" style="rounded=0;whiteSpace=wrap;html=1;fontSize=12;" parent="EyfO6nV798qz1CIs0pT1-211" vertex="1">
          <mxGeometry x="350" y="290" width="110" height="20" as="geometry" />
        </mxCell>
        <mxCell id="EyfO6nV798qz1CIs0pT1-300" value="text" style="rounded=0;whiteSpace=wrap;html=1;fontSize=12;" parent="EyfO6nV798qz1CIs0pT1-211" vertex="1">
          <mxGeometry x="670" y="290" width="110" height="20" as="geometry" />
        </mxCell>
        <mxCell id="EyfO6nV798qz1CIs0pT1-301" value="text" style="rounded=0;whiteSpace=wrap;html=1;fontSize=12;" parent="EyfO6nV798qz1CIs0pT1-211" vertex="1">
          <mxGeometry x="820" y="290" width="110" height="20" as="geometry" />
        </mxCell>
        <mxCell id="EyfO6nV798qz1CIs0pT1-302" value="text" style="rounded=0;whiteSpace=wrap;html=1;fontSize=12;" parent="EyfO6nV798qz1CIs0pT1-211" vertex="1">
          <mxGeometry x="980" y="290" width="110" height="20" as="geometry" />
        </mxCell>
        <mxCell id="EyfO6nV798qz1CIs0pT1-303" value="text" style="rounded=0;whiteSpace=wrap;html=1;fontSize=12;" parent="EyfO6nV798qz1CIs0pT1-211" vertex="1">
          <mxGeometry x="510" y="290" width="110" height="20" as="geometry" />
        </mxCell>
        <mxCell id="EyfO6nV798qz1CIs0pT1-370" value="" style="group" parent="EyfO6nV798qz1CIs0pT1-211" vertex="1" connectable="0">
          <mxGeometry x="45" y="340" width="110" height="190" as="geometry" />
        </mxCell>
        <mxCell id="EyfO6nV798qz1CIs0pT1-304" value="" style="rounded=1;whiteSpace=wrap;html=1;fontSize=35;" parent="EyfO6nV798qz1CIs0pT1-370" vertex="1">
          <mxGeometry width="110" height="190" as="geometry" />
        </mxCell>
        <mxCell id="EyfO6nV798qz1CIs0pT1-305" value="&lt;font style=&quot;font-size: 12px;&quot;&gt;image&lt;/font&gt;" style="rounded=1;whiteSpace=wrap;html=1;fontSize=35;" parent="EyfO6nV798qz1CIs0pT1-370" vertex="1">
          <mxGeometry x="15" y="10" width="80" height="80" as="geometry" />
        </mxCell>
        <mxCell id="EyfO6nV798qz1CIs0pT1-306" value="text" style="rounded=0;whiteSpace=wrap;html=1;fontSize=12;" parent="EyfO6nV798qz1CIs0pT1-370" vertex="1">
          <mxGeometry x="20" y="100" width="70" height="20" as="geometry" />
        </mxCell>
        <mxCell id="EyfO6nV798qz1CIs0pT1-365" value="text" style="rounded=0;whiteSpace=wrap;html=1;fontSize=12;" parent="EyfO6nV798qz1CIs0pT1-370" vertex="1">
          <mxGeometry x="20" y="130" width="45" height="20" as="geometry" />
        </mxCell>
        <mxCell id="EyfO6nV798qz1CIs0pT1-366" value="icon" style="ellipse;whiteSpace=wrap;html=1;aspect=fixed;fontSize=7;" parent="EyfO6nV798qz1CIs0pT1-370" vertex="1">
          <mxGeometry x="75" y="130" width="20" height="20" as="geometry" />
        </mxCell>
        <mxCell id="EyfO6nV798qz1CIs0pT1-369" value="button" style="rounded=1;whiteSpace=wrap;html=1;fontSize=7;" parent="EyfO6nV798qz1CIs0pT1-370" vertex="1">
          <mxGeometry x="20" y="160" width="70" height="20" as="geometry" />
        </mxCell>
        <mxCell id="EyfO6nV798qz1CIs0pT1-371" value="" style="group" parent="EyfO6nV798qz1CIs0pT1-211" vertex="1" connectable="0">
          <mxGeometry x="190" y="340" width="110" height="190" as="geometry" />
        </mxCell>
        <mxCell id="EyfO6nV798qz1CIs0pT1-372" value="" style="rounded=1;whiteSpace=wrap;html=1;fontSize=35;" parent="EyfO6nV798qz1CIs0pT1-371" vertex="1">
          <mxGeometry width="110" height="190" as="geometry" />
        </mxCell>
        <mxCell id="EyfO6nV798qz1CIs0pT1-373" value="&lt;font style=&quot;font-size: 12px;&quot;&gt;image&lt;/font&gt;" style="rounded=1;whiteSpace=wrap;html=1;fontSize=35;" parent="EyfO6nV798qz1CIs0pT1-371" vertex="1">
          <mxGeometry x="15" y="10" width="80" height="80" as="geometry" />
        </mxCell>
        <mxCell id="EyfO6nV798qz1CIs0pT1-374" value="text" style="rounded=0;whiteSpace=wrap;html=1;fontSize=12;" parent="EyfO6nV798qz1CIs0pT1-371" vertex="1">
          <mxGeometry x="20" y="100" width="70" height="20" as="geometry" />
        </mxCell>
        <mxCell id="EyfO6nV798qz1CIs0pT1-375" value="text" style="rounded=0;whiteSpace=wrap;html=1;fontSize=12;" parent="EyfO6nV798qz1CIs0pT1-371" vertex="1">
          <mxGeometry x="20" y="130" width="45" height="20" as="geometry" />
        </mxCell>
        <mxCell id="EyfO6nV798qz1CIs0pT1-376" value="icon" style="ellipse;whiteSpace=wrap;html=1;aspect=fixed;fontSize=7;" parent="EyfO6nV798qz1CIs0pT1-371" vertex="1">
          <mxGeometry x="75" y="130" width="20" height="20" as="geometry" />
        </mxCell>
        <mxCell id="EyfO6nV798qz1CIs0pT1-377" value="button" style="rounded=1;whiteSpace=wrap;html=1;fontSize=7;" parent="EyfO6nV798qz1CIs0pT1-371" vertex="1">
          <mxGeometry x="20" y="160" width="70" height="20" as="geometry" />
        </mxCell>
        <mxCell id="EyfO6nV798qz1CIs0pT1-378" value="" style="group" parent="EyfO6nV798qz1CIs0pT1-211" vertex="1" connectable="0">
          <mxGeometry x="350" y="340" width="110" height="190" as="geometry" />
        </mxCell>
        <mxCell id="EyfO6nV798qz1CIs0pT1-379" value="" style="rounded=1;whiteSpace=wrap;html=1;fontSize=35;" parent="EyfO6nV798qz1CIs0pT1-378" vertex="1">
          <mxGeometry width="110" height="190" as="geometry" />
        </mxCell>
        <mxCell id="EyfO6nV798qz1CIs0pT1-380" value="&lt;font style=&quot;font-size: 12px;&quot;&gt;image&lt;/font&gt;" style="rounded=1;whiteSpace=wrap;html=1;fontSize=35;" parent="EyfO6nV798qz1CIs0pT1-378" vertex="1">
          <mxGeometry x="15" y="10" width="80" height="80" as="geometry" />
        </mxCell>
        <mxCell id="EyfO6nV798qz1CIs0pT1-381" value="text" style="rounded=0;whiteSpace=wrap;html=1;fontSize=12;" parent="EyfO6nV798qz1CIs0pT1-378" vertex="1">
          <mxGeometry x="20" y="100" width="70" height="20" as="geometry" />
        </mxCell>
        <mxCell id="EyfO6nV798qz1CIs0pT1-382" value="text" style="rounded=0;whiteSpace=wrap;html=1;fontSize=12;" parent="EyfO6nV798qz1CIs0pT1-378" vertex="1">
          <mxGeometry x="20" y="130" width="45" height="20" as="geometry" />
        </mxCell>
        <mxCell id="EyfO6nV798qz1CIs0pT1-383" value="icon" style="ellipse;whiteSpace=wrap;html=1;aspect=fixed;fontSize=7;" parent="EyfO6nV798qz1CIs0pT1-378" vertex="1">
          <mxGeometry x="75" y="130" width="20" height="20" as="geometry" />
        </mxCell>
        <mxCell id="EyfO6nV798qz1CIs0pT1-384" value="button" style="rounded=1;whiteSpace=wrap;html=1;fontSize=7;" parent="EyfO6nV798qz1CIs0pT1-378" vertex="1">
          <mxGeometry x="20" y="160" width="70" height="20" as="geometry" />
        </mxCell>
        <mxCell id="EyfO6nV798qz1CIs0pT1-385" value="" style="group" parent="EyfO6nV798qz1CIs0pT1-211" vertex="1" connectable="0">
          <mxGeometry x="510" y="340" width="110" height="190" as="geometry" />
        </mxCell>
        <mxCell id="EyfO6nV798qz1CIs0pT1-386" value="" style="rounded=1;whiteSpace=wrap;html=1;fontSize=35;" parent="EyfO6nV798qz1CIs0pT1-385" vertex="1">
          <mxGeometry width="110" height="190" as="geometry" />
        </mxCell>
        <mxCell id="EyfO6nV798qz1CIs0pT1-387" value="&lt;font style=&quot;font-size: 12px;&quot;&gt;image&lt;/font&gt;" style="rounded=1;whiteSpace=wrap;html=1;fontSize=35;" parent="EyfO6nV798qz1CIs0pT1-385" vertex="1">
          <mxGeometry x="15" y="10" width="80" height="80" as="geometry" />
        </mxCell>
        <mxCell id="EyfO6nV798qz1CIs0pT1-388" value="text" style="rounded=0;whiteSpace=wrap;html=1;fontSize=12;" parent="EyfO6nV798qz1CIs0pT1-385" vertex="1">
          <mxGeometry x="20" y="100" width="70" height="20" as="geometry" />
        </mxCell>
        <mxCell id="EyfO6nV798qz1CIs0pT1-389" value="text" style="rounded=0;whiteSpace=wrap;html=1;fontSize=12;" parent="EyfO6nV798qz1CIs0pT1-385" vertex="1">
          <mxGeometry x="20" y="130" width="45" height="20" as="geometry" />
        </mxCell>
        <mxCell id="EyfO6nV798qz1CIs0pT1-390" value="icon" style="ellipse;whiteSpace=wrap;html=1;aspect=fixed;fontSize=7;" parent="EyfO6nV798qz1CIs0pT1-385" vertex="1">
          <mxGeometry x="75" y="130" width="20" height="20" as="geometry" />
        </mxCell>
        <mxCell id="EyfO6nV798qz1CIs0pT1-391" value="button" style="rounded=1;whiteSpace=wrap;html=1;fontSize=7;" parent="EyfO6nV798qz1CIs0pT1-385" vertex="1">
          <mxGeometry x="20" y="160" width="70" height="20" as="geometry" />
        </mxCell>
        <mxCell id="EyfO6nV798qz1CIs0pT1-392" value="" style="group" parent="EyfO6nV798qz1CIs0pT1-211" vertex="1" connectable="0">
          <mxGeometry x="670" y="340" width="110" height="190" as="geometry" />
        </mxCell>
        <mxCell id="EyfO6nV798qz1CIs0pT1-393" value="" style="rounded=1;whiteSpace=wrap;html=1;fontSize=35;" parent="EyfO6nV798qz1CIs0pT1-392" vertex="1">
          <mxGeometry width="110" height="190" as="geometry" />
        </mxCell>
        <mxCell id="EyfO6nV798qz1CIs0pT1-394" value="&lt;font style=&quot;font-size: 12px;&quot;&gt;image&lt;/font&gt;" style="rounded=1;whiteSpace=wrap;html=1;fontSize=35;" parent="EyfO6nV798qz1CIs0pT1-392" vertex="1">
          <mxGeometry x="15" y="10" width="80" height="80" as="geometry" />
        </mxCell>
        <mxCell id="EyfO6nV798qz1CIs0pT1-395" value="text" style="rounded=0;whiteSpace=wrap;html=1;fontSize=12;" parent="EyfO6nV798qz1CIs0pT1-392" vertex="1">
          <mxGeometry x="20" y="100" width="70" height="20" as="geometry" />
        </mxCell>
        <mxCell id="EyfO6nV798qz1CIs0pT1-396" value="text" style="rounded=0;whiteSpace=wrap;html=1;fontSize=12;" parent="EyfO6nV798qz1CIs0pT1-392" vertex="1">
          <mxGeometry x="20" y="130" width="45" height="20" as="geometry" />
        </mxCell>
        <mxCell id="EyfO6nV798qz1CIs0pT1-397" value="icon" style="ellipse;whiteSpace=wrap;html=1;aspect=fixed;fontSize=7;" parent="EyfO6nV798qz1CIs0pT1-392" vertex="1">
          <mxGeometry x="75" y="130" width="20" height="20" as="geometry" />
        </mxCell>
        <mxCell id="EyfO6nV798qz1CIs0pT1-398" value="button" style="rounded=1;whiteSpace=wrap;html=1;fontSize=7;" parent="EyfO6nV798qz1CIs0pT1-392" vertex="1">
          <mxGeometry x="20" y="160" width="70" height="20" as="geometry" />
        </mxCell>
        <mxCell id="EyfO6nV798qz1CIs0pT1-399" value="" style="group" parent="EyfO6nV798qz1CIs0pT1-211" vertex="1" connectable="0">
          <mxGeometry x="820" y="340" width="110" height="190" as="geometry" />
        </mxCell>
        <mxCell id="EyfO6nV798qz1CIs0pT1-400" value="" style="rounded=1;whiteSpace=wrap;html=1;fontSize=35;" parent="EyfO6nV798qz1CIs0pT1-399" vertex="1">
          <mxGeometry width="110" height="190" as="geometry" />
        </mxCell>
        <mxCell id="EyfO6nV798qz1CIs0pT1-401" value="&lt;font style=&quot;font-size: 12px;&quot;&gt;image&lt;/font&gt;" style="rounded=1;whiteSpace=wrap;html=1;fontSize=35;" parent="EyfO6nV798qz1CIs0pT1-399" vertex="1">
          <mxGeometry x="15" y="10" width="80" height="80" as="geometry" />
        </mxCell>
        <mxCell id="EyfO6nV798qz1CIs0pT1-402" value="text" style="rounded=0;whiteSpace=wrap;html=1;fontSize=12;" parent="EyfO6nV798qz1CIs0pT1-399" vertex="1">
          <mxGeometry x="20" y="100" width="70" height="20" as="geometry" />
        </mxCell>
        <mxCell id="EyfO6nV798qz1CIs0pT1-403" value="text" style="rounded=0;whiteSpace=wrap;html=1;fontSize=12;" parent="EyfO6nV798qz1CIs0pT1-399" vertex="1">
          <mxGeometry x="20" y="130" width="45" height="20" as="geometry" />
        </mxCell>
        <mxCell id="EyfO6nV798qz1CIs0pT1-404" value="icon" style="ellipse;whiteSpace=wrap;html=1;aspect=fixed;fontSize=7;" parent="EyfO6nV798qz1CIs0pT1-399" vertex="1">
          <mxGeometry x="75" y="130" width="20" height="20" as="geometry" />
        </mxCell>
        <mxCell id="EyfO6nV798qz1CIs0pT1-405" value="button" style="rounded=1;whiteSpace=wrap;html=1;fontSize=7;" parent="EyfO6nV798qz1CIs0pT1-399" vertex="1">
          <mxGeometry x="20" y="160" width="70" height="20" as="geometry" />
        </mxCell>
        <mxCell id="EyfO6nV798qz1CIs0pT1-406" value="" style="group" parent="EyfO6nV798qz1CIs0pT1-211" vertex="1" connectable="0">
          <mxGeometry x="980" y="340" width="110" height="190" as="geometry" />
        </mxCell>
        <mxCell id="EyfO6nV798qz1CIs0pT1-407" value="" style="rounded=1;whiteSpace=wrap;html=1;fontSize=35;" parent="EyfO6nV798qz1CIs0pT1-406" vertex="1">
          <mxGeometry width="110" height="190" as="geometry" />
        </mxCell>
        <mxCell id="EyfO6nV798qz1CIs0pT1-408" value="&lt;font style=&quot;font-size: 12px;&quot;&gt;image&lt;/font&gt;" style="rounded=1;whiteSpace=wrap;html=1;fontSize=35;" parent="EyfO6nV798qz1CIs0pT1-406" vertex="1">
          <mxGeometry x="15" y="10" width="80" height="80" as="geometry" />
        </mxCell>
        <mxCell id="EyfO6nV798qz1CIs0pT1-409" value="text" style="rounded=0;whiteSpace=wrap;html=1;fontSize=12;" parent="EyfO6nV798qz1CIs0pT1-406" vertex="1">
          <mxGeometry x="20" y="100" width="70" height="20" as="geometry" />
        </mxCell>
        <mxCell id="EyfO6nV798qz1CIs0pT1-410" value="text" style="rounded=0;whiteSpace=wrap;html=1;fontSize=12;" parent="EyfO6nV798qz1CIs0pT1-406" vertex="1">
          <mxGeometry x="20" y="130" width="45" height="20" as="geometry" />
        </mxCell>
        <mxCell id="EyfO6nV798qz1CIs0pT1-411" value="icon" style="ellipse;whiteSpace=wrap;html=1;aspect=fixed;fontSize=7;" parent="EyfO6nV798qz1CIs0pT1-406" vertex="1">
          <mxGeometry x="75" y="130" width="20" height="20" as="geometry" />
        </mxCell>
        <mxCell id="EyfO6nV798qz1CIs0pT1-412" value="button" style="rounded=1;whiteSpace=wrap;html=1;fontSize=7;" parent="EyfO6nV798qz1CIs0pT1-406" vertex="1">
          <mxGeometry x="20" y="160" width="70" height="20" as="geometry" />
        </mxCell>
        <mxCell id="EyfO6nV798qz1CIs0pT1-413" value="" style="group" parent="EyfO6nV798qz1CIs0pT1-211" vertex="1" connectable="0">
          <mxGeometry x="45" y="560" width="110" height="190" as="geometry" />
        </mxCell>
        <mxCell id="EyfO6nV798qz1CIs0pT1-414" value="" style="rounded=1;whiteSpace=wrap;html=1;fontSize=35;" parent="EyfO6nV798qz1CIs0pT1-413" vertex="1">
          <mxGeometry width="110" height="190" as="geometry" />
        </mxCell>
        <mxCell id="EyfO6nV798qz1CIs0pT1-415" value="&lt;font style=&quot;font-size: 12px;&quot;&gt;image&lt;/font&gt;" style="rounded=1;whiteSpace=wrap;html=1;fontSize=35;" parent="EyfO6nV798qz1CIs0pT1-413" vertex="1">
          <mxGeometry x="15" y="10" width="80" height="80" as="geometry" />
        </mxCell>
        <mxCell id="EyfO6nV798qz1CIs0pT1-416" value="text" style="rounded=0;whiteSpace=wrap;html=1;fontSize=12;" parent="EyfO6nV798qz1CIs0pT1-413" vertex="1">
          <mxGeometry x="20" y="100" width="70" height="20" as="geometry" />
        </mxCell>
        <mxCell id="EyfO6nV798qz1CIs0pT1-417" value="text" style="rounded=0;whiteSpace=wrap;html=1;fontSize=12;" parent="EyfO6nV798qz1CIs0pT1-413" vertex="1">
          <mxGeometry x="20" y="130" width="45" height="20" as="geometry" />
        </mxCell>
        <mxCell id="EyfO6nV798qz1CIs0pT1-418" value="icon" style="ellipse;whiteSpace=wrap;html=1;aspect=fixed;fontSize=7;" parent="EyfO6nV798qz1CIs0pT1-413" vertex="1">
          <mxGeometry x="75" y="130" width="20" height="20" as="geometry" />
        </mxCell>
        <mxCell id="EyfO6nV798qz1CIs0pT1-419" value="button" style="rounded=1;whiteSpace=wrap;html=1;fontSize=7;" parent="EyfO6nV798qz1CIs0pT1-413" vertex="1">
          <mxGeometry x="20" y="160" width="70" height="20" as="geometry" />
        </mxCell>
        <mxCell id="EyfO6nV798qz1CIs0pT1-420" value="" style="group" parent="EyfO6nV798qz1CIs0pT1-211" vertex="1" connectable="0">
          <mxGeometry x="190" y="560" width="110" height="190" as="geometry" />
        </mxCell>
        <mxCell id="EyfO6nV798qz1CIs0pT1-421" value="" style="rounded=1;whiteSpace=wrap;html=1;fontSize=35;" parent="EyfO6nV798qz1CIs0pT1-420" vertex="1">
          <mxGeometry width="110" height="190" as="geometry" />
        </mxCell>
        <mxCell id="EyfO6nV798qz1CIs0pT1-422" value="&lt;font style=&quot;font-size: 12px;&quot;&gt;image&lt;/font&gt;" style="rounded=1;whiteSpace=wrap;html=1;fontSize=35;" parent="EyfO6nV798qz1CIs0pT1-420" vertex="1">
          <mxGeometry x="15" y="10" width="80" height="80" as="geometry" />
        </mxCell>
        <mxCell id="EyfO6nV798qz1CIs0pT1-423" value="text" style="rounded=0;whiteSpace=wrap;html=1;fontSize=12;" parent="EyfO6nV798qz1CIs0pT1-420" vertex="1">
          <mxGeometry x="20" y="100" width="70" height="20" as="geometry" />
        </mxCell>
        <mxCell id="EyfO6nV798qz1CIs0pT1-424" value="text" style="rounded=0;whiteSpace=wrap;html=1;fontSize=12;" parent="EyfO6nV798qz1CIs0pT1-420" vertex="1">
          <mxGeometry x="20" y="130" width="45" height="20" as="geometry" />
        </mxCell>
        <mxCell id="EyfO6nV798qz1CIs0pT1-425" value="icon" style="ellipse;whiteSpace=wrap;html=1;aspect=fixed;fontSize=7;" parent="EyfO6nV798qz1CIs0pT1-420" vertex="1">
          <mxGeometry x="75" y="130" width="20" height="20" as="geometry" />
        </mxCell>
        <mxCell id="EyfO6nV798qz1CIs0pT1-426" value="button" style="rounded=1;whiteSpace=wrap;html=1;fontSize=7;" parent="EyfO6nV798qz1CIs0pT1-420" vertex="1">
          <mxGeometry x="20" y="160" width="70" height="20" as="geometry" />
        </mxCell>
        <mxCell id="EyfO6nV798qz1CIs0pT1-427" value="" style="group" parent="EyfO6nV798qz1CIs0pT1-211" vertex="1" connectable="0">
          <mxGeometry x="350" y="560" width="110" height="190" as="geometry" />
        </mxCell>
        <mxCell id="EyfO6nV798qz1CIs0pT1-428" value="" style="rounded=1;whiteSpace=wrap;html=1;fontSize=35;" parent="EyfO6nV798qz1CIs0pT1-427" vertex="1">
          <mxGeometry width="110" height="190" as="geometry" />
        </mxCell>
        <mxCell id="EyfO6nV798qz1CIs0pT1-429" value="&lt;font style=&quot;font-size: 12px;&quot;&gt;image&lt;/font&gt;" style="rounded=1;whiteSpace=wrap;html=1;fontSize=35;" parent="EyfO6nV798qz1CIs0pT1-427" vertex="1">
          <mxGeometry x="15" y="10" width="80" height="80" as="geometry" />
        </mxCell>
        <mxCell id="EyfO6nV798qz1CIs0pT1-430" value="text" style="rounded=0;whiteSpace=wrap;html=1;fontSize=12;" parent="EyfO6nV798qz1CIs0pT1-427" vertex="1">
          <mxGeometry x="20" y="100" width="70" height="20" as="geometry" />
        </mxCell>
        <mxCell id="EyfO6nV798qz1CIs0pT1-431" value="text" style="rounded=0;whiteSpace=wrap;html=1;fontSize=12;" parent="EyfO6nV798qz1CIs0pT1-427" vertex="1">
          <mxGeometry x="20" y="130" width="45" height="20" as="geometry" />
        </mxCell>
        <mxCell id="EyfO6nV798qz1CIs0pT1-432" value="icon" style="ellipse;whiteSpace=wrap;html=1;aspect=fixed;fontSize=7;" parent="EyfO6nV798qz1CIs0pT1-427" vertex="1">
          <mxGeometry x="75" y="130" width="20" height="20" as="geometry" />
        </mxCell>
        <mxCell id="EyfO6nV798qz1CIs0pT1-433" value="button" style="rounded=1;whiteSpace=wrap;html=1;fontSize=7;" parent="EyfO6nV798qz1CIs0pT1-427" vertex="1">
          <mxGeometry x="20" y="160" width="70" height="20" as="geometry" />
        </mxCell>
        <mxCell id="EyfO6nV798qz1CIs0pT1-434" value="" style="group" parent="EyfO6nV798qz1CIs0pT1-211" vertex="1" connectable="0">
          <mxGeometry x="510" y="560" width="110" height="190" as="geometry" />
        </mxCell>
        <mxCell id="EyfO6nV798qz1CIs0pT1-435" value="" style="rounded=1;whiteSpace=wrap;html=1;fontSize=35;" parent="EyfO6nV798qz1CIs0pT1-434" vertex="1">
          <mxGeometry width="110" height="190" as="geometry" />
        </mxCell>
        <mxCell id="EyfO6nV798qz1CIs0pT1-436" value="&lt;font style=&quot;font-size: 12px;&quot;&gt;image&lt;/font&gt;" style="rounded=1;whiteSpace=wrap;html=1;fontSize=35;" parent="EyfO6nV798qz1CIs0pT1-434" vertex="1">
          <mxGeometry x="15" y="10" width="80" height="80" as="geometry" />
        </mxCell>
        <mxCell id="EyfO6nV798qz1CIs0pT1-437" value="text" style="rounded=0;whiteSpace=wrap;html=1;fontSize=12;" parent="EyfO6nV798qz1CIs0pT1-434" vertex="1">
          <mxGeometry x="20" y="100" width="70" height="20" as="geometry" />
        </mxCell>
        <mxCell id="EyfO6nV798qz1CIs0pT1-438" value="text" style="rounded=0;whiteSpace=wrap;html=1;fontSize=12;" parent="EyfO6nV798qz1CIs0pT1-434" vertex="1">
          <mxGeometry x="20" y="130" width="45" height="20" as="geometry" />
        </mxCell>
        <mxCell id="EyfO6nV798qz1CIs0pT1-439" value="icon" style="ellipse;whiteSpace=wrap;html=1;aspect=fixed;fontSize=7;" parent="EyfO6nV798qz1CIs0pT1-434" vertex="1">
          <mxGeometry x="75" y="130" width="20" height="20" as="geometry" />
        </mxCell>
        <mxCell id="EyfO6nV798qz1CIs0pT1-440" value="button" style="rounded=1;whiteSpace=wrap;html=1;fontSize=7;" parent="EyfO6nV798qz1CIs0pT1-434" vertex="1">
          <mxGeometry x="20" y="160" width="70" height="20" as="geometry" />
        </mxCell>
        <mxCell id="EyfO6nV798qz1CIs0pT1-441" value="" style="group" parent="EyfO6nV798qz1CIs0pT1-211" vertex="1" connectable="0">
          <mxGeometry x="670" y="560" width="110" height="190" as="geometry" />
        </mxCell>
        <mxCell id="EyfO6nV798qz1CIs0pT1-442" value="" style="rounded=1;whiteSpace=wrap;html=1;fontSize=35;" parent="EyfO6nV798qz1CIs0pT1-441" vertex="1">
          <mxGeometry width="110" height="190" as="geometry" />
        </mxCell>
        <mxCell id="EyfO6nV798qz1CIs0pT1-443" value="&lt;font style=&quot;font-size: 12px;&quot;&gt;image&lt;/font&gt;" style="rounded=1;whiteSpace=wrap;html=1;fontSize=35;" parent="EyfO6nV798qz1CIs0pT1-441" vertex="1">
          <mxGeometry x="15" y="10" width="80" height="80" as="geometry" />
        </mxCell>
        <mxCell id="EyfO6nV798qz1CIs0pT1-444" value="text" style="rounded=0;whiteSpace=wrap;html=1;fontSize=12;" parent="EyfO6nV798qz1CIs0pT1-441" vertex="1">
          <mxGeometry x="20" y="100" width="70" height="20" as="geometry" />
        </mxCell>
        <mxCell id="EyfO6nV798qz1CIs0pT1-445" value="text" style="rounded=0;whiteSpace=wrap;html=1;fontSize=12;" parent="EyfO6nV798qz1CIs0pT1-441" vertex="1">
          <mxGeometry x="20" y="130" width="45" height="20" as="geometry" />
        </mxCell>
        <mxCell id="EyfO6nV798qz1CIs0pT1-446" value="icon" style="ellipse;whiteSpace=wrap;html=1;aspect=fixed;fontSize=7;" parent="EyfO6nV798qz1CIs0pT1-441" vertex="1">
          <mxGeometry x="75" y="130" width="20" height="20" as="geometry" />
        </mxCell>
        <mxCell id="EyfO6nV798qz1CIs0pT1-447" value="button" style="rounded=1;whiteSpace=wrap;html=1;fontSize=7;" parent="EyfO6nV798qz1CIs0pT1-441" vertex="1">
          <mxGeometry x="20" y="160" width="70" height="20" as="geometry" />
        </mxCell>
        <mxCell id="EyfO6nV798qz1CIs0pT1-448" value="" style="group" parent="EyfO6nV798qz1CIs0pT1-211" vertex="1" connectable="0">
          <mxGeometry x="820" y="560" width="110" height="190" as="geometry" />
        </mxCell>
        <mxCell id="EyfO6nV798qz1CIs0pT1-449" value="" style="rounded=1;whiteSpace=wrap;html=1;fontSize=35;" parent="EyfO6nV798qz1CIs0pT1-448" vertex="1">
          <mxGeometry width="110" height="190" as="geometry" />
        </mxCell>
        <mxCell id="EyfO6nV798qz1CIs0pT1-450" value="&lt;font style=&quot;font-size: 12px;&quot;&gt;image&lt;/font&gt;" style="rounded=1;whiteSpace=wrap;html=1;fontSize=35;" parent="EyfO6nV798qz1CIs0pT1-448" vertex="1">
          <mxGeometry x="15" y="10" width="80" height="80" as="geometry" />
        </mxCell>
        <mxCell id="EyfO6nV798qz1CIs0pT1-451" value="text" style="rounded=0;whiteSpace=wrap;html=1;fontSize=12;" parent="EyfO6nV798qz1CIs0pT1-448" vertex="1">
          <mxGeometry x="20" y="100" width="70" height="20" as="geometry" />
        </mxCell>
        <mxCell id="EyfO6nV798qz1CIs0pT1-452" value="text" style="rounded=0;whiteSpace=wrap;html=1;fontSize=12;" parent="EyfO6nV798qz1CIs0pT1-448" vertex="1">
          <mxGeometry x="20" y="130" width="45" height="20" as="geometry" />
        </mxCell>
        <mxCell id="EyfO6nV798qz1CIs0pT1-453" value="icon" style="ellipse;whiteSpace=wrap;html=1;aspect=fixed;fontSize=7;" parent="EyfO6nV798qz1CIs0pT1-448" vertex="1">
          <mxGeometry x="75" y="130" width="20" height="20" as="geometry" />
        </mxCell>
        <mxCell id="EyfO6nV798qz1CIs0pT1-454" value="button" style="rounded=1;whiteSpace=wrap;html=1;fontSize=7;" parent="EyfO6nV798qz1CIs0pT1-448" vertex="1">
          <mxGeometry x="20" y="160" width="70" height="20" as="geometry" />
        </mxCell>
        <mxCell id="EyfO6nV798qz1CIs0pT1-455" value="" style="group" parent="EyfO6nV798qz1CIs0pT1-211" vertex="1" connectable="0">
          <mxGeometry x="980" y="560" width="110" height="190" as="geometry" />
        </mxCell>
        <mxCell id="EyfO6nV798qz1CIs0pT1-456" value="" style="rounded=1;whiteSpace=wrap;html=1;fontSize=35;" parent="EyfO6nV798qz1CIs0pT1-455" vertex="1">
          <mxGeometry width="110" height="190" as="geometry" />
        </mxCell>
        <mxCell id="EyfO6nV798qz1CIs0pT1-457" value="&lt;font style=&quot;font-size: 12px;&quot;&gt;image&lt;/font&gt;" style="rounded=1;whiteSpace=wrap;html=1;fontSize=35;" parent="EyfO6nV798qz1CIs0pT1-455" vertex="1">
          <mxGeometry x="15" y="10" width="80" height="80" as="geometry" />
        </mxCell>
        <mxCell id="EyfO6nV798qz1CIs0pT1-458" value="text" style="rounded=0;whiteSpace=wrap;html=1;fontSize=12;" parent="EyfO6nV798qz1CIs0pT1-455" vertex="1">
          <mxGeometry x="20" y="100" width="70" height="20" as="geometry" />
        </mxCell>
        <mxCell id="EyfO6nV798qz1CIs0pT1-459" value="text" style="rounded=0;whiteSpace=wrap;html=1;fontSize=12;" parent="EyfO6nV798qz1CIs0pT1-455" vertex="1">
          <mxGeometry x="20" y="130" width="45" height="20" as="geometry" />
        </mxCell>
        <mxCell id="EyfO6nV798qz1CIs0pT1-460" value="icon" style="ellipse;whiteSpace=wrap;html=1;aspect=fixed;fontSize=7;" parent="EyfO6nV798qz1CIs0pT1-455" vertex="1">
          <mxGeometry x="75" y="130" width="20" height="20" as="geometry" />
        </mxCell>
        <mxCell id="EyfO6nV798qz1CIs0pT1-461" value="button" style="rounded=1;whiteSpace=wrap;html=1;fontSize=7;" parent="EyfO6nV798qz1CIs0pT1-455" vertex="1">
          <mxGeometry x="20" y="160" width="70" height="20" as="geometry" />
        </mxCell>
        <mxCell id="EyfO6nV798qz1CIs0pT1-462" value="text" style="rounded=0;whiteSpace=wrap;html=1;fontSize=12;" parent="EyfO6nV798qz1CIs0pT1-211" vertex="1">
          <mxGeometry x="45" y="230" width="110" height="20" as="geometry" />
        </mxCell>
        <mxCell id="EyfO6nV798qz1CIs0pT1-588" value="dropdown" style="rounded=0;whiteSpace=wrap;html=1;fontSize=12;" parent="EyfO6nV798qz1CIs0pT1-211" vertex="1">
          <mxGeometry x="160" y="230" width="110" height="20" as="geometry" />
        </mxCell>
        <mxCell id="EyfO6nV798qz1CIs0pT1-589" value="" style="group" parent="1" vertex="1" connectable="0">
          <mxGeometry x="3740" y="-1080" width="1160" height="730" as="geometry" />
        </mxCell>
        <mxCell id="EyfO6nV798qz1CIs0pT1-590" value="" style="rounded=0;whiteSpace=wrap;html=1;container=1;" parent="EyfO6nV798qz1CIs0pT1-589" vertex="1">
          <mxGeometry y="50" width="1160" height="680" as="geometry" />
        </mxCell>
        <mxCell id="EyfO6nV798qz1CIs0pT1-591" value="" style="rounded=0;whiteSpace=wrap;html=1;" parent="EyfO6nV798qz1CIs0pT1-589" vertex="1">
          <mxGeometry x="20" y="70" width="1110" height="100" as="geometry" />
        </mxCell>
        <mxCell id="EyfO6nV798qz1CIs0pT1-592" value="nav button" style="rounded=0;whiteSpace=wrap;html=1;" parent="EyfO6nV798qz1CIs0pT1-589" vertex="1">
          <mxGeometry x="40" y="90" width="120" height="60" as="geometry" />
        </mxCell>
        <mxCell id="EyfO6nV798qz1CIs0pT1-593" value="nav button" style="rounded=0;whiteSpace=wrap;html=1;" parent="EyfO6nV798qz1CIs0pT1-589" vertex="1">
          <mxGeometry x="990" y="90" width="120" height="60" as="geometry" />
        </mxCell>
        <mxCell id="EyfO6nV798qz1CIs0pT1-594" value="nav button" style="rounded=0;whiteSpace=wrap;html=1;" parent="EyfO6nV798qz1CIs0pT1-589" vertex="1">
          <mxGeometry x="515" y="90" width="120" height="60" as="geometry" />
        </mxCell>
        <mxCell id="EyfO6nV798qz1CIs0pT1-595" value="nav button" style="rounded=0;whiteSpace=wrap;html=1;" parent="EyfO6nV798qz1CIs0pT1-589" vertex="1">
          <mxGeometry x="270" y="90" width="120" height="60" as="geometry" />
        </mxCell>
        <mxCell id="EyfO6nV798qz1CIs0pT1-596" value="nav button" style="rounded=0;whiteSpace=wrap;html=1;" parent="EyfO6nV798qz1CIs0pT1-589" vertex="1">
          <mxGeometry x="750" y="90" width="120" height="60" as="geometry" />
        </mxCell>
        <mxCell id="EyfO6nV798qz1CIs0pT1-597" value="&lt;font style=&quot;font-size: 38px;&quot;&gt;Recommendations page&lt;br&gt;&lt;/font&gt;" style="text;html=1;strokeColor=none;fillColor=none;align=center;verticalAlign=middle;whiteSpace=wrap;rounded=0;" parent="EyfO6nV798qz1CIs0pT1-589" vertex="1">
          <mxGeometry x="350" width="440" height="30" as="geometry" />
        </mxCell>
        <mxCell id="EyfO6nV798qz1CIs0pT1-598" value="" style="rounded=1;whiteSpace=wrap;html=1;fontSize=38;" parent="EyfO6nV798qz1CIs0pT1-589" vertex="1">
          <mxGeometry x="20" y="190" width="1110" height="510" as="geometry" />
        </mxCell>
        <mxCell id="EyfO6nV798qz1CIs0pT1-612" value="&lt;font style=&quot;font-size: 12px;&quot;&gt;text&lt;/font&gt;" style="rounded=1;whiteSpace=wrap;html=1;fontSize=7;" parent="EyfO6nV798qz1CIs0pT1-589" vertex="1">
          <mxGeometry x="25" y="190" width="1095" height="60" as="geometry" />
        </mxCell>
        <mxCell id="EyfO6nV798qz1CIs0pT1-776" value="" style="group" parent="EyfO6nV798qz1CIs0pT1-589" vertex="1" connectable="0">
          <mxGeometry x="50" y="490" width="1045" height="190" as="geometry" />
        </mxCell>
        <mxCell id="EyfO6nV798qz1CIs0pT1-777" value="" style="group" parent="EyfO6nV798qz1CIs0pT1-776" vertex="1" connectable="0">
          <mxGeometry width="110" height="190" as="geometry" />
        </mxCell>
        <mxCell id="EyfO6nV798qz1CIs0pT1-778" value="" style="rounded=1;whiteSpace=wrap;html=1;fontSize=35;" parent="EyfO6nV798qz1CIs0pT1-777" vertex="1">
          <mxGeometry width="110" height="190" as="geometry" />
        </mxCell>
        <mxCell id="EyfO6nV798qz1CIs0pT1-779" value="&lt;font style=&quot;font-size: 12px;&quot;&gt;image&lt;/font&gt;" style="rounded=1;whiteSpace=wrap;html=1;fontSize=35;" parent="EyfO6nV798qz1CIs0pT1-777" vertex="1">
          <mxGeometry x="15" y="10" width="80" height="80" as="geometry" />
        </mxCell>
        <mxCell id="EyfO6nV798qz1CIs0pT1-780" value="text" style="rounded=0;whiteSpace=wrap;html=1;fontSize=12;" parent="EyfO6nV798qz1CIs0pT1-777" vertex="1">
          <mxGeometry x="20" y="100" width="70" height="20" as="geometry" />
        </mxCell>
        <mxCell id="EyfO6nV798qz1CIs0pT1-781" value="text" style="rounded=0;whiteSpace=wrap;html=1;fontSize=12;" parent="EyfO6nV798qz1CIs0pT1-777" vertex="1">
          <mxGeometry x="20" y="130" width="45" height="20" as="geometry" />
        </mxCell>
        <mxCell id="EyfO6nV798qz1CIs0pT1-782" value="icon" style="ellipse;whiteSpace=wrap;html=1;aspect=fixed;fontSize=7;" parent="EyfO6nV798qz1CIs0pT1-777" vertex="1">
          <mxGeometry x="75" y="130" width="20" height="20" as="geometry" />
        </mxCell>
        <mxCell id="EyfO6nV798qz1CIs0pT1-783" value="button" style="rounded=1;whiteSpace=wrap;html=1;fontSize=7;" parent="EyfO6nV798qz1CIs0pT1-777" vertex="1">
          <mxGeometry x="20" y="160" width="70" height="20" as="geometry" />
        </mxCell>
        <mxCell id="EyfO6nV798qz1CIs0pT1-784" value="" style="group" parent="EyfO6nV798qz1CIs0pT1-776" vertex="1" connectable="0">
          <mxGeometry x="145" width="110" height="190" as="geometry" />
        </mxCell>
        <mxCell id="EyfO6nV798qz1CIs0pT1-785" value="" style="rounded=1;whiteSpace=wrap;html=1;fontSize=35;" parent="EyfO6nV798qz1CIs0pT1-784" vertex="1">
          <mxGeometry width="110" height="190" as="geometry" />
        </mxCell>
        <mxCell id="EyfO6nV798qz1CIs0pT1-786" value="&lt;font style=&quot;font-size: 12px;&quot;&gt;image&lt;/font&gt;" style="rounded=1;whiteSpace=wrap;html=1;fontSize=35;" parent="EyfO6nV798qz1CIs0pT1-784" vertex="1">
          <mxGeometry x="15" y="10" width="80" height="80" as="geometry" />
        </mxCell>
        <mxCell id="EyfO6nV798qz1CIs0pT1-787" value="text" style="rounded=0;whiteSpace=wrap;html=1;fontSize=12;" parent="EyfO6nV798qz1CIs0pT1-784" vertex="1">
          <mxGeometry x="20" y="100" width="70" height="20" as="geometry" />
        </mxCell>
        <mxCell id="EyfO6nV798qz1CIs0pT1-788" value="text" style="rounded=0;whiteSpace=wrap;html=1;fontSize=12;" parent="EyfO6nV798qz1CIs0pT1-784" vertex="1">
          <mxGeometry x="20" y="130" width="45" height="20" as="geometry" />
        </mxCell>
        <mxCell id="EyfO6nV798qz1CIs0pT1-789" value="icon" style="ellipse;whiteSpace=wrap;html=1;aspect=fixed;fontSize=7;" parent="EyfO6nV798qz1CIs0pT1-784" vertex="1">
          <mxGeometry x="75" y="130" width="20" height="20" as="geometry" />
        </mxCell>
        <mxCell id="EyfO6nV798qz1CIs0pT1-790" value="button" style="rounded=1;whiteSpace=wrap;html=1;fontSize=7;" parent="EyfO6nV798qz1CIs0pT1-784" vertex="1">
          <mxGeometry x="20" y="160" width="70" height="20" as="geometry" />
        </mxCell>
        <mxCell id="EyfO6nV798qz1CIs0pT1-791" value="" style="group" parent="EyfO6nV798qz1CIs0pT1-776" vertex="1" connectable="0">
          <mxGeometry x="305" width="110" height="190" as="geometry" />
        </mxCell>
        <mxCell id="EyfO6nV798qz1CIs0pT1-792" value="" style="rounded=1;whiteSpace=wrap;html=1;fontSize=35;" parent="EyfO6nV798qz1CIs0pT1-791" vertex="1">
          <mxGeometry width="110" height="190" as="geometry" />
        </mxCell>
        <mxCell id="EyfO6nV798qz1CIs0pT1-793" value="&lt;font style=&quot;font-size: 12px;&quot;&gt;image&lt;/font&gt;" style="rounded=1;whiteSpace=wrap;html=1;fontSize=35;" parent="EyfO6nV798qz1CIs0pT1-791" vertex="1">
          <mxGeometry x="15" y="10" width="80" height="80" as="geometry" />
        </mxCell>
        <mxCell id="EyfO6nV798qz1CIs0pT1-794" value="text" style="rounded=0;whiteSpace=wrap;html=1;fontSize=12;" parent="EyfO6nV798qz1CIs0pT1-791" vertex="1">
          <mxGeometry x="20" y="100" width="70" height="20" as="geometry" />
        </mxCell>
        <mxCell id="EyfO6nV798qz1CIs0pT1-795" value="text" style="rounded=0;whiteSpace=wrap;html=1;fontSize=12;" parent="EyfO6nV798qz1CIs0pT1-791" vertex="1">
          <mxGeometry x="20" y="130" width="45" height="20" as="geometry" />
        </mxCell>
        <mxCell id="EyfO6nV798qz1CIs0pT1-796" value="icon" style="ellipse;whiteSpace=wrap;html=1;aspect=fixed;fontSize=7;" parent="EyfO6nV798qz1CIs0pT1-791" vertex="1">
          <mxGeometry x="75" y="130" width="20" height="20" as="geometry" />
        </mxCell>
        <mxCell id="EyfO6nV798qz1CIs0pT1-797" value="button" style="rounded=1;whiteSpace=wrap;html=1;fontSize=7;" parent="EyfO6nV798qz1CIs0pT1-791" vertex="1">
          <mxGeometry x="20" y="160" width="70" height="20" as="geometry" />
        </mxCell>
        <mxCell id="EyfO6nV798qz1CIs0pT1-798" value="" style="group" parent="EyfO6nV798qz1CIs0pT1-776" vertex="1" connectable="0">
          <mxGeometry x="465" width="110" height="190" as="geometry" />
        </mxCell>
        <mxCell id="EyfO6nV798qz1CIs0pT1-799" value="" style="rounded=1;whiteSpace=wrap;html=1;fontSize=35;" parent="EyfO6nV798qz1CIs0pT1-798" vertex="1">
          <mxGeometry width="110" height="190" as="geometry" />
        </mxCell>
        <mxCell id="EyfO6nV798qz1CIs0pT1-800" value="&lt;font style=&quot;font-size: 12px;&quot;&gt;image&lt;/font&gt;" style="rounded=1;whiteSpace=wrap;html=1;fontSize=35;" parent="EyfO6nV798qz1CIs0pT1-798" vertex="1">
          <mxGeometry x="15" y="10" width="80" height="80" as="geometry" />
        </mxCell>
        <mxCell id="EyfO6nV798qz1CIs0pT1-801" value="text" style="rounded=0;whiteSpace=wrap;html=1;fontSize=12;" parent="EyfO6nV798qz1CIs0pT1-798" vertex="1">
          <mxGeometry x="20" y="100" width="70" height="20" as="geometry" />
        </mxCell>
        <mxCell id="EyfO6nV798qz1CIs0pT1-802" value="text" style="rounded=0;whiteSpace=wrap;html=1;fontSize=12;" parent="EyfO6nV798qz1CIs0pT1-798" vertex="1">
          <mxGeometry x="20" y="130" width="45" height="20" as="geometry" />
        </mxCell>
        <mxCell id="EyfO6nV798qz1CIs0pT1-803" value="icon" style="ellipse;whiteSpace=wrap;html=1;aspect=fixed;fontSize=7;" parent="EyfO6nV798qz1CIs0pT1-798" vertex="1">
          <mxGeometry x="75" y="130" width="20" height="20" as="geometry" />
        </mxCell>
        <mxCell id="EyfO6nV798qz1CIs0pT1-804" value="button" style="rounded=1;whiteSpace=wrap;html=1;fontSize=7;" parent="EyfO6nV798qz1CIs0pT1-798" vertex="1">
          <mxGeometry x="20" y="160" width="70" height="20" as="geometry" />
        </mxCell>
        <mxCell id="EyfO6nV798qz1CIs0pT1-805" value="" style="group" parent="EyfO6nV798qz1CIs0pT1-776" vertex="1" connectable="0">
          <mxGeometry x="625" width="110" height="190" as="geometry" />
        </mxCell>
        <mxCell id="EyfO6nV798qz1CIs0pT1-806" value="" style="rounded=1;whiteSpace=wrap;html=1;fontSize=35;" parent="EyfO6nV798qz1CIs0pT1-805" vertex="1">
          <mxGeometry width="110" height="190" as="geometry" />
        </mxCell>
        <mxCell id="EyfO6nV798qz1CIs0pT1-807" value="&lt;font style=&quot;font-size: 12px;&quot;&gt;image&lt;/font&gt;" style="rounded=1;whiteSpace=wrap;html=1;fontSize=35;" parent="EyfO6nV798qz1CIs0pT1-805" vertex="1">
          <mxGeometry x="15" y="10" width="80" height="80" as="geometry" />
        </mxCell>
        <mxCell id="EyfO6nV798qz1CIs0pT1-808" value="text" style="rounded=0;whiteSpace=wrap;html=1;fontSize=12;" parent="EyfO6nV798qz1CIs0pT1-805" vertex="1">
          <mxGeometry x="20" y="100" width="70" height="20" as="geometry" />
        </mxCell>
        <mxCell id="EyfO6nV798qz1CIs0pT1-809" value="text" style="rounded=0;whiteSpace=wrap;html=1;fontSize=12;" parent="EyfO6nV798qz1CIs0pT1-805" vertex="1">
          <mxGeometry x="20" y="130" width="45" height="20" as="geometry" />
        </mxCell>
        <mxCell id="EyfO6nV798qz1CIs0pT1-810" value="icon" style="ellipse;whiteSpace=wrap;html=1;aspect=fixed;fontSize=7;" parent="EyfO6nV798qz1CIs0pT1-805" vertex="1">
          <mxGeometry x="75" y="130" width="20" height="20" as="geometry" />
        </mxCell>
        <mxCell id="EyfO6nV798qz1CIs0pT1-811" value="button" style="rounded=1;whiteSpace=wrap;html=1;fontSize=7;" parent="EyfO6nV798qz1CIs0pT1-805" vertex="1">
          <mxGeometry x="20" y="160" width="70" height="20" as="geometry" />
        </mxCell>
        <mxCell id="EyfO6nV798qz1CIs0pT1-812" value="" style="group" parent="EyfO6nV798qz1CIs0pT1-776" vertex="1" connectable="0">
          <mxGeometry x="775" width="110" height="190" as="geometry" />
        </mxCell>
        <mxCell id="EyfO6nV798qz1CIs0pT1-813" value="" style="rounded=1;whiteSpace=wrap;html=1;fontSize=35;" parent="EyfO6nV798qz1CIs0pT1-812" vertex="1">
          <mxGeometry width="110" height="190" as="geometry" />
        </mxCell>
        <mxCell id="EyfO6nV798qz1CIs0pT1-814" value="&lt;font style=&quot;font-size: 12px;&quot;&gt;image&lt;/font&gt;" style="rounded=1;whiteSpace=wrap;html=1;fontSize=35;" parent="EyfO6nV798qz1CIs0pT1-812" vertex="1">
          <mxGeometry x="15" y="10" width="80" height="80" as="geometry" />
        </mxCell>
        <mxCell id="EyfO6nV798qz1CIs0pT1-815" value="text" style="rounded=0;whiteSpace=wrap;html=1;fontSize=12;" parent="EyfO6nV798qz1CIs0pT1-812" vertex="1">
          <mxGeometry x="20" y="100" width="70" height="20" as="geometry" />
        </mxCell>
        <mxCell id="EyfO6nV798qz1CIs0pT1-816" value="text" style="rounded=0;whiteSpace=wrap;html=1;fontSize=12;" parent="EyfO6nV798qz1CIs0pT1-812" vertex="1">
          <mxGeometry x="20" y="130" width="45" height="20" as="geometry" />
        </mxCell>
        <mxCell id="EyfO6nV798qz1CIs0pT1-817" value="icon" style="ellipse;whiteSpace=wrap;html=1;aspect=fixed;fontSize=7;" parent="EyfO6nV798qz1CIs0pT1-812" vertex="1">
          <mxGeometry x="75" y="130" width="20" height="20" as="geometry" />
        </mxCell>
        <mxCell id="EyfO6nV798qz1CIs0pT1-818" value="button" style="rounded=1;whiteSpace=wrap;html=1;fontSize=7;" parent="EyfO6nV798qz1CIs0pT1-812" vertex="1">
          <mxGeometry x="20" y="160" width="70" height="20" as="geometry" />
        </mxCell>
        <mxCell id="EyfO6nV798qz1CIs0pT1-819" value="" style="group" parent="EyfO6nV798qz1CIs0pT1-776" vertex="1" connectable="0">
          <mxGeometry x="935" width="110" height="190" as="geometry" />
        </mxCell>
        <mxCell id="EyfO6nV798qz1CIs0pT1-820" value="" style="rounded=1;whiteSpace=wrap;html=1;fontSize=35;" parent="EyfO6nV798qz1CIs0pT1-819" vertex="1">
          <mxGeometry width="110" height="190" as="geometry" />
        </mxCell>
        <mxCell id="EyfO6nV798qz1CIs0pT1-821" value="&lt;font style=&quot;font-size: 12px;&quot;&gt;image&lt;/font&gt;" style="rounded=1;whiteSpace=wrap;html=1;fontSize=35;" parent="EyfO6nV798qz1CIs0pT1-819" vertex="1">
          <mxGeometry x="15" y="10" width="80" height="80" as="geometry" />
        </mxCell>
        <mxCell id="EyfO6nV798qz1CIs0pT1-822" value="text" style="rounded=0;whiteSpace=wrap;html=1;fontSize=12;" parent="EyfO6nV798qz1CIs0pT1-819" vertex="1">
          <mxGeometry x="20" y="100" width="70" height="20" as="geometry" />
        </mxCell>
        <mxCell id="EyfO6nV798qz1CIs0pT1-823" value="text" style="rounded=0;whiteSpace=wrap;html=1;fontSize=12;" parent="EyfO6nV798qz1CIs0pT1-819" vertex="1">
          <mxGeometry x="20" y="130" width="45" height="20" as="geometry" />
        </mxCell>
        <mxCell id="EyfO6nV798qz1CIs0pT1-824" value="icon" style="ellipse;whiteSpace=wrap;html=1;aspect=fixed;fontSize=7;" parent="EyfO6nV798qz1CIs0pT1-819" vertex="1">
          <mxGeometry x="75" y="130" width="20" height="20" as="geometry" />
        </mxCell>
        <mxCell id="EyfO6nV798qz1CIs0pT1-825" value="button" style="rounded=1;whiteSpace=wrap;html=1;fontSize=7;" parent="EyfO6nV798qz1CIs0pT1-819" vertex="1">
          <mxGeometry x="20" y="160" width="70" height="20" as="geometry" />
        </mxCell>
        <mxCell id="EyfO6nV798qz1CIs0pT1-613" value="" style="group" parent="1" vertex="1" connectable="0">
          <mxGeometry x="3490" y="70" width="110" height="190" as="geometry" />
        </mxCell>
        <mxCell id="EyfO6nV798qz1CIs0pT1-614" value="" style="rounded=1;whiteSpace=wrap;html=1;fontSize=35;" parent="EyfO6nV798qz1CIs0pT1-613" vertex="1">
          <mxGeometry width="110" height="190" as="geometry" />
        </mxCell>
        <mxCell id="EyfO6nV798qz1CIs0pT1-615" value="&lt;font style=&quot;font-size: 12px;&quot;&gt;image&lt;/font&gt;" style="rounded=1;whiteSpace=wrap;html=1;fontSize=35;" parent="EyfO6nV798qz1CIs0pT1-613" vertex="1">
          <mxGeometry x="15" y="10" width="80" height="80" as="geometry" />
        </mxCell>
        <mxCell id="EyfO6nV798qz1CIs0pT1-616" value="text" style="rounded=0;whiteSpace=wrap;html=1;fontSize=12;" parent="EyfO6nV798qz1CIs0pT1-613" vertex="1">
          <mxGeometry x="20" y="100" width="70" height="20" as="geometry" />
        </mxCell>
        <mxCell id="EyfO6nV798qz1CIs0pT1-617" value="text" style="rounded=0;whiteSpace=wrap;html=1;fontSize=12;" parent="EyfO6nV798qz1CIs0pT1-613" vertex="1">
          <mxGeometry x="20" y="130" width="45" height="20" as="geometry" />
        </mxCell>
        <mxCell id="EyfO6nV798qz1CIs0pT1-618" value="icon" style="ellipse;whiteSpace=wrap;html=1;aspect=fixed;fontSize=7;" parent="EyfO6nV798qz1CIs0pT1-613" vertex="1">
          <mxGeometry x="75" y="130" width="20" height="20" as="geometry" />
        </mxCell>
        <mxCell id="EyfO6nV798qz1CIs0pT1-619" value="button" style="rounded=1;whiteSpace=wrap;html=1;fontSize=7;" parent="EyfO6nV798qz1CIs0pT1-613" vertex="1">
          <mxGeometry x="20" y="160" width="70" height="20" as="geometry" />
        </mxCell>
        <mxCell id="EyfO6nV798qz1CIs0pT1-726" value="" style="group" parent="1" vertex="1" connectable="0">
          <mxGeometry x="3790" y="-810" width="1045" height="190" as="geometry" />
        </mxCell>
        <mxCell id="EyfO6nV798qz1CIs0pT1-727" value="" style="group" parent="EyfO6nV798qz1CIs0pT1-726" vertex="1" connectable="0">
          <mxGeometry width="110" height="190" as="geometry" />
        </mxCell>
        <mxCell id="EyfO6nV798qz1CIs0pT1-728" value="" style="rounded=1;whiteSpace=wrap;html=1;fontSize=35;" parent="EyfO6nV798qz1CIs0pT1-727" vertex="1">
          <mxGeometry width="110" height="190" as="geometry" />
        </mxCell>
        <mxCell id="EyfO6nV798qz1CIs0pT1-729" value="&lt;font style=&quot;font-size: 12px;&quot;&gt;image&lt;/font&gt;" style="rounded=1;whiteSpace=wrap;html=1;fontSize=35;" parent="EyfO6nV798qz1CIs0pT1-727" vertex="1">
          <mxGeometry x="15" y="10" width="80" height="80" as="geometry" />
        </mxCell>
        <mxCell id="EyfO6nV798qz1CIs0pT1-730" value="text" style="rounded=0;whiteSpace=wrap;html=1;fontSize=12;" parent="EyfO6nV798qz1CIs0pT1-727" vertex="1">
          <mxGeometry x="20" y="100" width="70" height="20" as="geometry" />
        </mxCell>
        <mxCell id="EyfO6nV798qz1CIs0pT1-731" value="text" style="rounded=0;whiteSpace=wrap;html=1;fontSize=12;" parent="EyfO6nV798qz1CIs0pT1-727" vertex="1">
          <mxGeometry x="20" y="130" width="45" height="20" as="geometry" />
        </mxCell>
        <mxCell id="EyfO6nV798qz1CIs0pT1-732" value="icon" style="ellipse;whiteSpace=wrap;html=1;aspect=fixed;fontSize=7;" parent="EyfO6nV798qz1CIs0pT1-727" vertex="1">
          <mxGeometry x="75" y="130" width="20" height="20" as="geometry" />
        </mxCell>
        <mxCell id="EyfO6nV798qz1CIs0pT1-733" value="button" style="rounded=1;whiteSpace=wrap;html=1;fontSize=7;" parent="EyfO6nV798qz1CIs0pT1-727" vertex="1">
          <mxGeometry x="20" y="160" width="70" height="20" as="geometry" />
        </mxCell>
        <mxCell id="EyfO6nV798qz1CIs0pT1-734" value="" style="group" parent="EyfO6nV798qz1CIs0pT1-726" vertex="1" connectable="0">
          <mxGeometry x="145" width="110" height="190" as="geometry" />
        </mxCell>
        <mxCell id="EyfO6nV798qz1CIs0pT1-735" value="" style="rounded=1;whiteSpace=wrap;html=1;fontSize=35;" parent="EyfO6nV798qz1CIs0pT1-734" vertex="1">
          <mxGeometry width="110" height="190" as="geometry" />
        </mxCell>
        <mxCell id="EyfO6nV798qz1CIs0pT1-736" value="&lt;font style=&quot;font-size: 12px;&quot;&gt;image&lt;/font&gt;" style="rounded=1;whiteSpace=wrap;html=1;fontSize=35;" parent="EyfO6nV798qz1CIs0pT1-734" vertex="1">
          <mxGeometry x="15" y="10" width="80" height="80" as="geometry" />
        </mxCell>
        <mxCell id="EyfO6nV798qz1CIs0pT1-737" value="text" style="rounded=0;whiteSpace=wrap;html=1;fontSize=12;" parent="EyfO6nV798qz1CIs0pT1-734" vertex="1">
          <mxGeometry x="20" y="100" width="70" height="20" as="geometry" />
        </mxCell>
        <mxCell id="EyfO6nV798qz1CIs0pT1-738" value="text" style="rounded=0;whiteSpace=wrap;html=1;fontSize=12;" parent="EyfO6nV798qz1CIs0pT1-734" vertex="1">
          <mxGeometry x="20" y="130" width="45" height="20" as="geometry" />
        </mxCell>
        <mxCell id="EyfO6nV798qz1CIs0pT1-739" value="icon" style="ellipse;whiteSpace=wrap;html=1;aspect=fixed;fontSize=7;" parent="EyfO6nV798qz1CIs0pT1-734" vertex="1">
          <mxGeometry x="75" y="130" width="20" height="20" as="geometry" />
        </mxCell>
        <mxCell id="EyfO6nV798qz1CIs0pT1-740" value="button" style="rounded=1;whiteSpace=wrap;html=1;fontSize=7;" parent="EyfO6nV798qz1CIs0pT1-734" vertex="1">
          <mxGeometry x="20" y="160" width="70" height="20" as="geometry" />
        </mxCell>
        <mxCell id="EyfO6nV798qz1CIs0pT1-741" value="" style="group" parent="EyfO6nV798qz1CIs0pT1-726" vertex="1" connectable="0">
          <mxGeometry x="305" width="110" height="190" as="geometry" />
        </mxCell>
        <mxCell id="EyfO6nV798qz1CIs0pT1-742" value="" style="rounded=1;whiteSpace=wrap;html=1;fontSize=35;" parent="EyfO6nV798qz1CIs0pT1-741" vertex="1">
          <mxGeometry width="110" height="190" as="geometry" />
        </mxCell>
        <mxCell id="EyfO6nV798qz1CIs0pT1-743" value="&lt;font style=&quot;font-size: 12px;&quot;&gt;image&lt;/font&gt;" style="rounded=1;whiteSpace=wrap;html=1;fontSize=35;" parent="EyfO6nV798qz1CIs0pT1-741" vertex="1">
          <mxGeometry x="15" y="10" width="80" height="80" as="geometry" />
        </mxCell>
        <mxCell id="EyfO6nV798qz1CIs0pT1-744" value="text" style="rounded=0;whiteSpace=wrap;html=1;fontSize=12;" parent="EyfO6nV798qz1CIs0pT1-741" vertex="1">
          <mxGeometry x="20" y="100" width="70" height="20" as="geometry" />
        </mxCell>
        <mxCell id="EyfO6nV798qz1CIs0pT1-745" value="text" style="rounded=0;whiteSpace=wrap;html=1;fontSize=12;" parent="EyfO6nV798qz1CIs0pT1-741" vertex="1">
          <mxGeometry x="20" y="130" width="45" height="20" as="geometry" />
        </mxCell>
        <mxCell id="EyfO6nV798qz1CIs0pT1-746" value="icon" style="ellipse;whiteSpace=wrap;html=1;aspect=fixed;fontSize=7;" parent="EyfO6nV798qz1CIs0pT1-741" vertex="1">
          <mxGeometry x="75" y="130" width="20" height="20" as="geometry" />
        </mxCell>
        <mxCell id="EyfO6nV798qz1CIs0pT1-747" value="button" style="rounded=1;whiteSpace=wrap;html=1;fontSize=7;" parent="EyfO6nV798qz1CIs0pT1-741" vertex="1">
          <mxGeometry x="20" y="160" width="70" height="20" as="geometry" />
        </mxCell>
        <mxCell id="EyfO6nV798qz1CIs0pT1-748" value="" style="group" parent="EyfO6nV798qz1CIs0pT1-726" vertex="1" connectable="0">
          <mxGeometry x="465" width="110" height="190" as="geometry" />
        </mxCell>
        <mxCell id="EyfO6nV798qz1CIs0pT1-749" value="" style="rounded=1;whiteSpace=wrap;html=1;fontSize=35;" parent="EyfO6nV798qz1CIs0pT1-748" vertex="1">
          <mxGeometry width="110" height="190" as="geometry" />
        </mxCell>
        <mxCell id="EyfO6nV798qz1CIs0pT1-750" value="&lt;font style=&quot;font-size: 12px;&quot;&gt;image&lt;/font&gt;" style="rounded=1;whiteSpace=wrap;html=1;fontSize=35;" parent="EyfO6nV798qz1CIs0pT1-748" vertex="1">
          <mxGeometry x="15" y="10" width="80" height="80" as="geometry" />
        </mxCell>
        <mxCell id="EyfO6nV798qz1CIs0pT1-751" value="text" style="rounded=0;whiteSpace=wrap;html=1;fontSize=12;" parent="EyfO6nV798qz1CIs0pT1-748" vertex="1">
          <mxGeometry x="20" y="100" width="70" height="20" as="geometry" />
        </mxCell>
        <mxCell id="EyfO6nV798qz1CIs0pT1-752" value="text" style="rounded=0;whiteSpace=wrap;html=1;fontSize=12;" parent="EyfO6nV798qz1CIs0pT1-748" vertex="1">
          <mxGeometry x="20" y="130" width="45" height="20" as="geometry" />
        </mxCell>
        <mxCell id="EyfO6nV798qz1CIs0pT1-753" value="icon" style="ellipse;whiteSpace=wrap;html=1;aspect=fixed;fontSize=7;" parent="EyfO6nV798qz1CIs0pT1-748" vertex="1">
          <mxGeometry x="75" y="130" width="20" height="20" as="geometry" />
        </mxCell>
        <mxCell id="EyfO6nV798qz1CIs0pT1-754" value="button" style="rounded=1;whiteSpace=wrap;html=1;fontSize=7;" parent="EyfO6nV798qz1CIs0pT1-748" vertex="1">
          <mxGeometry x="20" y="160" width="70" height="20" as="geometry" />
        </mxCell>
        <mxCell id="EyfO6nV798qz1CIs0pT1-755" value="" style="group" parent="EyfO6nV798qz1CIs0pT1-726" vertex="1" connectable="0">
          <mxGeometry x="625" width="110" height="190" as="geometry" />
        </mxCell>
        <mxCell id="EyfO6nV798qz1CIs0pT1-756" value="" style="rounded=1;whiteSpace=wrap;html=1;fontSize=35;" parent="EyfO6nV798qz1CIs0pT1-755" vertex="1">
          <mxGeometry width="110" height="190" as="geometry" />
        </mxCell>
        <mxCell id="EyfO6nV798qz1CIs0pT1-757" value="&lt;font style=&quot;font-size: 12px;&quot;&gt;image&lt;/font&gt;" style="rounded=1;whiteSpace=wrap;html=1;fontSize=35;" parent="EyfO6nV798qz1CIs0pT1-755" vertex="1">
          <mxGeometry x="15" y="10" width="80" height="80" as="geometry" />
        </mxCell>
        <mxCell id="EyfO6nV798qz1CIs0pT1-758" value="text" style="rounded=0;whiteSpace=wrap;html=1;fontSize=12;" parent="EyfO6nV798qz1CIs0pT1-755" vertex="1">
          <mxGeometry x="20" y="100" width="70" height="20" as="geometry" />
        </mxCell>
        <mxCell id="EyfO6nV798qz1CIs0pT1-759" value="text" style="rounded=0;whiteSpace=wrap;html=1;fontSize=12;" parent="EyfO6nV798qz1CIs0pT1-755" vertex="1">
          <mxGeometry x="20" y="130" width="45" height="20" as="geometry" />
        </mxCell>
        <mxCell id="EyfO6nV798qz1CIs0pT1-760" value="icon" style="ellipse;whiteSpace=wrap;html=1;aspect=fixed;fontSize=7;" parent="EyfO6nV798qz1CIs0pT1-755" vertex="1">
          <mxGeometry x="75" y="130" width="20" height="20" as="geometry" />
        </mxCell>
        <mxCell id="EyfO6nV798qz1CIs0pT1-761" value="button" style="rounded=1;whiteSpace=wrap;html=1;fontSize=7;" parent="EyfO6nV798qz1CIs0pT1-755" vertex="1">
          <mxGeometry x="20" y="160" width="70" height="20" as="geometry" />
        </mxCell>
        <mxCell id="EyfO6nV798qz1CIs0pT1-762" value="" style="group" parent="EyfO6nV798qz1CIs0pT1-726" vertex="1" connectable="0">
          <mxGeometry x="775" width="110" height="190" as="geometry" />
        </mxCell>
        <mxCell id="EyfO6nV798qz1CIs0pT1-763" value="" style="rounded=1;whiteSpace=wrap;html=1;fontSize=35;" parent="EyfO6nV798qz1CIs0pT1-762" vertex="1">
          <mxGeometry width="110" height="190" as="geometry" />
        </mxCell>
        <mxCell id="EyfO6nV798qz1CIs0pT1-764" value="&lt;font style=&quot;font-size: 12px;&quot;&gt;image&lt;/font&gt;" style="rounded=1;whiteSpace=wrap;html=1;fontSize=35;" parent="EyfO6nV798qz1CIs0pT1-762" vertex="1">
          <mxGeometry x="15" y="10" width="80" height="80" as="geometry" />
        </mxCell>
        <mxCell id="EyfO6nV798qz1CIs0pT1-765" value="text" style="rounded=0;whiteSpace=wrap;html=1;fontSize=12;" parent="EyfO6nV798qz1CIs0pT1-762" vertex="1">
          <mxGeometry x="20" y="100" width="70" height="20" as="geometry" />
        </mxCell>
        <mxCell id="EyfO6nV798qz1CIs0pT1-766" value="text" style="rounded=0;whiteSpace=wrap;html=1;fontSize=12;" parent="EyfO6nV798qz1CIs0pT1-762" vertex="1">
          <mxGeometry x="20" y="130" width="45" height="20" as="geometry" />
        </mxCell>
        <mxCell id="EyfO6nV798qz1CIs0pT1-767" value="icon" style="ellipse;whiteSpace=wrap;html=1;aspect=fixed;fontSize=7;" parent="EyfO6nV798qz1CIs0pT1-762" vertex="1">
          <mxGeometry x="75" y="130" width="20" height="20" as="geometry" />
        </mxCell>
        <mxCell id="EyfO6nV798qz1CIs0pT1-768" value="button" style="rounded=1;whiteSpace=wrap;html=1;fontSize=7;" parent="EyfO6nV798qz1CIs0pT1-762" vertex="1">
          <mxGeometry x="20" y="160" width="70" height="20" as="geometry" />
        </mxCell>
        <mxCell id="EyfO6nV798qz1CIs0pT1-769" value="" style="group" parent="EyfO6nV798qz1CIs0pT1-726" vertex="1" connectable="0">
          <mxGeometry x="935" width="110" height="190" as="geometry" />
        </mxCell>
        <mxCell id="EyfO6nV798qz1CIs0pT1-770" value="" style="rounded=1;whiteSpace=wrap;html=1;fontSize=35;" parent="EyfO6nV798qz1CIs0pT1-769" vertex="1">
          <mxGeometry width="110" height="190" as="geometry" />
        </mxCell>
        <mxCell id="EyfO6nV798qz1CIs0pT1-771" value="&lt;font style=&quot;font-size: 12px;&quot;&gt;image&lt;/font&gt;" style="rounded=1;whiteSpace=wrap;html=1;fontSize=35;" parent="EyfO6nV798qz1CIs0pT1-769" vertex="1">
          <mxGeometry x="15" y="10" width="80" height="80" as="geometry" />
        </mxCell>
        <mxCell id="EyfO6nV798qz1CIs0pT1-772" value="text" style="rounded=0;whiteSpace=wrap;html=1;fontSize=12;" parent="EyfO6nV798qz1CIs0pT1-769" vertex="1">
          <mxGeometry x="20" y="100" width="70" height="20" as="geometry" />
        </mxCell>
        <mxCell id="EyfO6nV798qz1CIs0pT1-773" value="text" style="rounded=0;whiteSpace=wrap;html=1;fontSize=12;" parent="EyfO6nV798qz1CIs0pT1-769" vertex="1">
          <mxGeometry x="20" y="130" width="45" height="20" as="geometry" />
        </mxCell>
        <mxCell id="EyfO6nV798qz1CIs0pT1-774" value="icon" style="ellipse;whiteSpace=wrap;html=1;aspect=fixed;fontSize=7;" parent="EyfO6nV798qz1CIs0pT1-769" vertex="1">
          <mxGeometry x="75" y="130" width="20" height="20" as="geometry" />
        </mxCell>
        <mxCell id="EyfO6nV798qz1CIs0pT1-775" value="button" style="rounded=1;whiteSpace=wrap;html=1;fontSize=7;" parent="EyfO6nV798qz1CIs0pT1-769" vertex="1">
          <mxGeometry x="20" y="160" width="70" height="20" as="geometry" />
        </mxCell>
        <mxCell id="EyfO6nV798qz1CIs0pT1-826" value="" style="group" parent="1" vertex="1" connectable="0">
          <mxGeometry x="1250" y="-1070" width="1160" height="730" as="geometry" />
        </mxCell>
        <mxCell id="EyfO6nV798qz1CIs0pT1-827" value="" style="rounded=0;whiteSpace=wrap;html=1;" parent="EyfO6nV798qz1CIs0pT1-826" vertex="1">
          <mxGeometry y="50" width="1160" height="680" as="geometry" />
        </mxCell>
        <mxCell id="EyfO6nV798qz1CIs0pT1-828" value="" style="rounded=0;whiteSpace=wrap;html=1;" parent="EyfO6nV798qz1CIs0pT1-826" vertex="1">
          <mxGeometry x="20" y="70" width="1110" height="100" as="geometry" />
        </mxCell>
        <mxCell id="EyfO6nV798qz1CIs0pT1-829" value="nav button" style="rounded=0;whiteSpace=wrap;html=1;" parent="EyfO6nV798qz1CIs0pT1-826" vertex="1">
          <mxGeometry x="40" y="90" width="120" height="60" as="geometry" />
        </mxCell>
        <mxCell id="EyfO6nV798qz1CIs0pT1-830" value="nav button" style="rounded=0;whiteSpace=wrap;html=1;" parent="EyfO6nV798qz1CIs0pT1-826" vertex="1">
          <mxGeometry x="990" y="90" width="120" height="60" as="geometry" />
        </mxCell>
        <mxCell id="EyfO6nV798qz1CIs0pT1-831" value="nav button" style="rounded=0;whiteSpace=wrap;html=1;" parent="EyfO6nV798qz1CIs0pT1-826" vertex="1">
          <mxGeometry x="515" y="90" width="120" height="60" as="geometry" />
        </mxCell>
        <mxCell id="EyfO6nV798qz1CIs0pT1-832" value="nav button" style="rounded=0;whiteSpace=wrap;html=1;" parent="EyfO6nV798qz1CIs0pT1-826" vertex="1">
          <mxGeometry x="270" y="90" width="120" height="60" as="geometry" />
        </mxCell>
        <mxCell id="EyfO6nV798qz1CIs0pT1-833" value="nav button" style="rounded=0;whiteSpace=wrap;html=1;" parent="EyfO6nV798qz1CIs0pT1-826" vertex="1">
          <mxGeometry x="750" y="90" width="120" height="60" as="geometry" />
        </mxCell>
        <mxCell id="EyfO6nV798qz1CIs0pT1-834" value="&lt;font style=&quot;font-size: 24px;&quot;&gt;Sauce Finder Page&lt;br&gt;(no search results)&lt;br&gt;&lt;/font&gt;" style="text;html=1;strokeColor=none;fillColor=none;align=center;verticalAlign=middle;whiteSpace=wrap;rounded=0;" parent="EyfO6nV798qz1CIs0pT1-826" vertex="1">
          <mxGeometry x="400" width="350" height="30" as="geometry" />
        </mxCell>
        <mxCell id="EyfO6nV798qz1CIs0pT1-835" value="" style="rounded=1;whiteSpace=wrap;html=1;fontSize=38;" parent="EyfO6nV798qz1CIs0pT1-826" vertex="1">
          <mxGeometry x="20" y="190" width="1120" height="470" as="geometry" />
        </mxCell>
        <mxCell id="EyfO6nV798qz1CIs0pT1-893" value="" style="group" parent="EyfO6nV798qz1CIs0pT1-826" vertex="1" connectable="0">
          <mxGeometry x="485" y="250" width="190" height="280" as="geometry" />
        </mxCell>
        <mxCell id="EyfO6nV798qz1CIs0pT1-836" value="&lt;font style=&quot;font-size: 12px;&quot;&gt;image&lt;/font&gt;" style="rounded=1;whiteSpace=wrap;html=1;fontSize=38;" parent="EyfO6nV798qz1CIs0pT1-893" vertex="1">
          <mxGeometry x="30" y="30" width="130" height="115" as="geometry" />
        </mxCell>
        <mxCell id="EyfO6nV798qz1CIs0pT1-837" value="text" style="rounded=0;whiteSpace=wrap;html=1;fontSize=12;" parent="EyfO6nV798qz1CIs0pT1-893" vertex="1">
          <mxGeometry x="50" width="90" height="20" as="geometry" />
        </mxCell>
        <mxCell id="EyfO6nV798qz1CIs0pT1-838" value="text" style="rounded=0;whiteSpace=wrap;html=1;fontSize=12;" parent="EyfO6nV798qz1CIs0pT1-893" vertex="1">
          <mxGeometry x="50" y="155" width="90" height="20" as="geometry" />
        </mxCell>
        <mxCell id="EyfO6nV798qz1CIs0pT1-839" value="text" style="rounded=0;whiteSpace=wrap;html=1;fontSize=12;" parent="EyfO6nV798qz1CIs0pT1-893" vertex="1">
          <mxGeometry y="185" width="190" height="20" as="geometry" />
        </mxCell>
        <mxCell id="EyfO6nV798qz1CIs0pT1-840" value="text input" style="rounded=0;whiteSpace=wrap;html=1;fontSize=12;fontStyle=0" parent="EyfO6nV798qz1CIs0pT1-893" vertex="1">
          <mxGeometry x="50" y="215" width="90" height="20" as="geometry" />
        </mxCell>
        <mxCell id="EyfO6nV798qz1CIs0pT1-841" value="button" style="rounded=1;whiteSpace=wrap;html=1;fontSize=12;" parent="EyfO6nV798qz1CIs0pT1-893" vertex="1">
          <mxGeometry x="35" y="245" width="120" height="35" as="geometry" />
        </mxCell>
        <mxCell id="EyfO6nV798qz1CIs0pT1-894" value="" style="rounded=1;whiteSpace=wrap;html=1;fontSize=24;" parent="1" vertex="1">
          <mxGeometry x="3848.5" y="-230" width="912" height="590" as="geometry" />
        </mxCell>
        <mxCell id="EyfO6nV798qz1CIs0pT1-895" value="text" style="rounded=0;whiteSpace=wrap;html=1;fontSize=24;" parent="1" vertex="1">
          <mxGeometry x="4230.5" y="-190" width="120" height="30" as="geometry" />
        </mxCell>
        <mxCell id="EyfO6nV798qz1CIs0pT1-896" value="text" style="rounded=0;whiteSpace=wrap;html=1;fontSize=24;" parent="1" vertex="1">
          <mxGeometry x="4170.5" y="-150" width="240" height="30" as="geometry" />
        </mxCell>
        <mxCell id="EyfO6nV798qz1CIs0pT1-897" value="text" style="rounded=0;whiteSpace=wrap;html=1;fontSize=24;" parent="1" vertex="1">
          <mxGeometry x="4230.5" y="-110" width="120" height="30" as="geometry" />
        </mxCell>
        <mxCell id="EyfO6nV798qz1CIs0pT1-899" value="icon" style="ellipse;whiteSpace=wrap;html=1;aspect=fixed;fontSize=7;" parent="1" vertex="1">
          <mxGeometry x="4184.5" y="-70" width="20" height="20" as="geometry" />
        </mxCell>
        <mxCell id="EyfO6nV798qz1CIs0pT1-900" value="icon" style="ellipse;whiteSpace=wrap;html=1;aspect=fixed;fontSize=7;" parent="1" vertex="1">
          <mxGeometry x="4209.5" y="-70" width="20" height="20" as="geometry" />
        </mxCell>
        <mxCell id="EyfO6nV798qz1CIs0pT1-901" value="icon" style="ellipse;whiteSpace=wrap;html=1;aspect=fixed;fontSize=7;" parent="1" vertex="1">
          <mxGeometry x="4234.5" y="-70" width="20" height="20" as="geometry" />
        </mxCell>
        <mxCell id="EyfO6nV798qz1CIs0pT1-903" value="icon" style="ellipse;whiteSpace=wrap;html=1;aspect=fixed;fontSize=7;" parent="1" vertex="1">
          <mxGeometry x="4260.5" y="-70" width="20" height="20" as="geometry" />
        </mxCell>
        <mxCell id="EyfO6nV798qz1CIs0pT1-904" value="icon" style="ellipse;whiteSpace=wrap;html=1;aspect=fixed;fontSize=7;" parent="1" vertex="1">
          <mxGeometry x="4285.5" y="-70" width="20" height="20" as="geometry" />
        </mxCell>
        <mxCell id="EyfO6nV798qz1CIs0pT1-905" value="icon" style="ellipse;whiteSpace=wrap;html=1;aspect=fixed;fontSize=7;" parent="1" vertex="1">
          <mxGeometry x="4310.5" y="-70" width="20" height="20" as="geometry" />
        </mxCell>
        <mxCell id="EyfO6nV798qz1CIs0pT1-906" value="icon" style="ellipse;whiteSpace=wrap;html=1;aspect=fixed;fontSize=7;" parent="1" vertex="1">
          <mxGeometry x="4337.5" y="-70" width="20" height="20" as="geometry" />
        </mxCell>
        <mxCell id="EyfO6nV798qz1CIs0pT1-907" value="icon" style="ellipse;whiteSpace=wrap;html=1;aspect=fixed;fontSize=7;" parent="1" vertex="1">
          <mxGeometry x="4362.5" y="-70" width="20" height="20" as="geometry" />
        </mxCell>
        <mxCell id="EyfO6nV798qz1CIs0pT1-908" value="icon" style="ellipse;whiteSpace=wrap;html=1;aspect=fixed;fontSize=7;" parent="1" vertex="1">
          <mxGeometry x="4387.5" y="-70" width="20" height="20" as="geometry" />
        </mxCell>
        <mxCell id="EyfO6nV798qz1CIs0pT1-909" value="text" style="rounded=0;whiteSpace=wrap;html=1;fontSize=24;" parent="1" vertex="1">
          <mxGeometry x="4145" y="-20" width="545.5" height="240" as="geometry" />
        </mxCell>
        <mxCell id="EyfO6nV798qz1CIs0pT1-910" value="image" style="rounded=1;whiteSpace=wrap;html=1;fontSize=24;" parent="1" vertex="1">
          <mxGeometry x="3885.5" y="-120" width="215" height="320" as="geometry" />
        </mxCell>
        <mxCell id="EyfO6nV798qz1CIs0pT1-911" value="button" style="rounded=1;whiteSpace=wrap;html=1;fontSize=7;" parent="1" vertex="1">
          <mxGeometry x="4170.5" y="270" width="85.5" height="30" as="geometry" />
        </mxCell>
        <mxCell id="EyfO6nV798qz1CIs0pT1-912" value="button" style="rounded=1;whiteSpace=wrap;html=1;fontSize=7;" parent="1" vertex="1">
          <mxGeometry x="4315.75" y="270" width="85.5" height="30" as="geometry" />
        </mxCell>
        <mxCell id="EyfO6nV798qz1CIs0pT1-913" value="button" style="rounded=1;whiteSpace=wrap;html=1;fontSize=7;" parent="1" vertex="1">
          <mxGeometry x="4574.25" y="270" width="85.5" height="30" as="geometry" />
        </mxCell>
        <mxCell id="EyfO6nV798qz1CIs0pT1-914" value="button" style="rounded=1;whiteSpace=wrap;html=1;fontSize=7;" parent="1" vertex="1">
          <mxGeometry x="4444.25" y="270" width="85.5" height="30" as="geometry" />
        </mxCell>
        <mxCell id="EyfO6nV798qz1CIs0pT1-917" value="Anime details modal" style="text;html=1;strokeColor=none;fillColor=none;align=center;verticalAlign=middle;whiteSpace=wrap;rounded=0;fontSize=24;" parent="1" vertex="1">
          <mxGeometry x="4178.5" y="-270" width="234" height="30" as="geometry" />
        </mxCell>
        <mxCell id="EyfO6nV798qz1CIs0pT1-918" value="" style="group" parent="1" vertex="1" connectable="0">
          <mxGeometry x="5000" y="-1090" width="1160" height="730" as="geometry" />
        </mxCell>
        <mxCell id="EyfO6nV798qz1CIs0pT1-919" value="" style="rounded=0;whiteSpace=wrap;html=1;" parent="EyfO6nV798qz1CIs0pT1-918" vertex="1">
          <mxGeometry y="50" width="1160" height="680" as="geometry" />
        </mxCell>
        <mxCell id="EyfO6nV798qz1CIs0pT1-920" value="" style="rounded=0;whiteSpace=wrap;html=1;" parent="EyfO6nV798qz1CIs0pT1-918" vertex="1">
          <mxGeometry x="20" y="70" width="1110" height="100" as="geometry" />
        </mxCell>
        <mxCell id="EyfO6nV798qz1CIs0pT1-921" value="nav button" style="rounded=0;whiteSpace=wrap;html=1;" parent="EyfO6nV798qz1CIs0pT1-918" vertex="1">
          <mxGeometry x="40" y="90" width="120" height="60" as="geometry" />
        </mxCell>
        <mxCell id="EyfO6nV798qz1CIs0pT1-922" value="nav button" style="rounded=0;whiteSpace=wrap;html=1;" parent="EyfO6nV798qz1CIs0pT1-918" vertex="1">
          <mxGeometry x="990" y="90" width="120" height="60" as="geometry" />
        </mxCell>
        <mxCell id="EyfO6nV798qz1CIs0pT1-923" value="nav button" style="rounded=0;whiteSpace=wrap;html=1;" parent="EyfO6nV798qz1CIs0pT1-918" vertex="1">
          <mxGeometry x="515" y="90" width="120" height="60" as="geometry" />
        </mxCell>
        <mxCell id="EyfO6nV798qz1CIs0pT1-924" value="nav button" style="rounded=0;whiteSpace=wrap;html=1;" parent="EyfO6nV798qz1CIs0pT1-918" vertex="1">
          <mxGeometry x="270" y="90" width="120" height="60" as="geometry" />
        </mxCell>
        <mxCell id="EyfO6nV798qz1CIs0pT1-925" value="nav button" style="rounded=0;whiteSpace=wrap;html=1;" parent="EyfO6nV798qz1CIs0pT1-918" vertex="1">
          <mxGeometry x="750" y="90" width="120" height="60" as="geometry" />
        </mxCell>
        <mxCell id="EyfO6nV798qz1CIs0pT1-926" value="&lt;font style=&quot;font-size: 38px;&quot;&gt;Quiz page (pick writing system)&lt;br&gt;&lt;/font&gt;" style="text;html=1;strokeColor=none;fillColor=none;align=center;verticalAlign=middle;whiteSpace=wrap;rounded=0;" parent="EyfO6nV798qz1CIs0pT1-918" vertex="1">
          <mxGeometry x="310" width="590" height="30" as="geometry" />
        </mxCell>
        <mxCell id="EyfO6nV798qz1CIs0pT1-927" value="" style="rounded=1;whiteSpace=wrap;html=1;fontSize=38;" parent="EyfO6nV798qz1CIs0pT1-918" vertex="1">
          <mxGeometry x="20" y="190" width="1110" height="380" as="geometry" />
        </mxCell>
        <mxCell id="EyfO6nV798qz1CIs0pT1-941" value="text" style="rounded=0;whiteSpace=wrap;html=1;fontSize=12;" parent="EyfO6nV798qz1CIs0pT1-918" vertex="1">
          <mxGeometry x="552.5" y="210" width="45" height="20" as="geometry" />
        </mxCell>
        <mxCell id="EyfO6nV798qz1CIs0pT1-942" value="text" style="rounded=0;whiteSpace=wrap;html=1;fontSize=12;" parent="EyfO6nV798qz1CIs0pT1-918" vertex="1">
          <mxGeometry x="460" y="240" width="240" height="20" as="geometry" />
        </mxCell>
        <mxCell id="EyfO6nV798qz1CIs0pT1-943" value="button" style="rounded=1;whiteSpace=wrap;html=1;fontSize=24;" parent="EyfO6nV798qz1CIs0pT1-918" vertex="1">
          <mxGeometry x="407.5" y="285" width="345" height="60" as="geometry" />
        </mxCell>
        <mxCell id="EyfO6nV798qz1CIs0pT1-944" value="button" style="rounded=1;whiteSpace=wrap;html=1;fontSize=24;" parent="EyfO6nV798qz1CIs0pT1-918" vertex="1">
          <mxGeometry x="405" y="380" width="345" height="60" as="geometry" />
        </mxCell>
        <mxCell id="EyfO6nV798qz1CIs0pT1-945" value="button" style="rounded=1;whiteSpace=wrap;html=1;fontSize=24;" parent="EyfO6nV798qz1CIs0pT1-918" vertex="1">
          <mxGeometry x="407.5" y="470" width="345" height="60" as="geometry" />
        </mxCell>
        <mxCell id="EyfO6nV798qz1CIs0pT1-946" value="" style="group" parent="1" vertex="1" connectable="0">
          <mxGeometry x="5000" y="-290" width="1160" height="730" as="geometry" />
        </mxCell>
        <mxCell id="EyfO6nV798qz1CIs0pT1-947" value="" style="rounded=0;whiteSpace=wrap;html=1;" parent="EyfO6nV798qz1CIs0pT1-946" vertex="1">
          <mxGeometry y="50" width="1160" height="680" as="geometry" />
        </mxCell>
        <mxCell id="EyfO6nV798qz1CIs0pT1-948" value="" style="rounded=0;whiteSpace=wrap;html=1;" parent="EyfO6nV798qz1CIs0pT1-946" vertex="1">
          <mxGeometry x="20" y="70" width="1110" height="100" as="geometry" />
        </mxCell>
        <mxCell id="EyfO6nV798qz1CIs0pT1-949" value="nav button" style="rounded=0;whiteSpace=wrap;html=1;" parent="EyfO6nV798qz1CIs0pT1-946" vertex="1">
          <mxGeometry x="40" y="90" width="120" height="60" as="geometry" />
        </mxCell>
        <mxCell id="EyfO6nV798qz1CIs0pT1-950" value="nav button" style="rounded=0;whiteSpace=wrap;html=1;" parent="EyfO6nV798qz1CIs0pT1-946" vertex="1">
          <mxGeometry x="990" y="90" width="120" height="60" as="geometry" />
        </mxCell>
        <mxCell id="EyfO6nV798qz1CIs0pT1-951" value="nav button" style="rounded=0;whiteSpace=wrap;html=1;" parent="EyfO6nV798qz1CIs0pT1-946" vertex="1">
          <mxGeometry x="515" y="90" width="120" height="60" as="geometry" />
        </mxCell>
        <mxCell id="EyfO6nV798qz1CIs0pT1-952" value="nav button" style="rounded=0;whiteSpace=wrap;html=1;" parent="EyfO6nV798qz1CIs0pT1-946" vertex="1">
          <mxGeometry x="270" y="90" width="120" height="60" as="geometry" />
        </mxCell>
        <mxCell id="EyfO6nV798qz1CIs0pT1-953" value="nav button" style="rounded=0;whiteSpace=wrap;html=1;" parent="EyfO6nV798qz1CIs0pT1-946" vertex="1">
          <mxGeometry x="750" y="90" width="120" height="60" as="geometry" />
        </mxCell>
        <mxCell id="EyfO6nV798qz1CIs0pT1-954" value="&lt;font style=&quot;font-size: 38px;&quot;&gt;Quiz page (pick ordering system or readings)&lt;br&gt;&lt;/font&gt;" style="text;html=1;strokeColor=none;fillColor=none;align=center;verticalAlign=middle;whiteSpace=wrap;rounded=0;" parent="EyfO6nV798qz1CIs0pT1-946" vertex="1">
          <mxGeometry x="310" width="590" height="30" as="geometry" />
        </mxCell>
        <mxCell id="EyfO6nV798qz1CIs0pT1-955" value="" style="rounded=1;whiteSpace=wrap;html=1;fontSize=38;" parent="EyfO6nV798qz1CIs0pT1-946" vertex="1">
          <mxGeometry x="20" y="190" width="1110" height="420" as="geometry" />
        </mxCell>
        <mxCell id="EyfO6nV798qz1CIs0pT1-956" value="text" style="rounded=0;whiteSpace=wrap;html=1;fontSize=12;" parent="EyfO6nV798qz1CIs0pT1-946" vertex="1">
          <mxGeometry x="536" y="200" width="45" height="20" as="geometry" />
        </mxCell>
        <mxCell id="EyfO6nV798qz1CIs0pT1-957" value="text" style="rounded=0;whiteSpace=wrap;html=1;fontSize=12;" parent="EyfO6nV798qz1CIs0pT1-946" vertex="1">
          <mxGeometry x="460" y="230" width="240" height="50" as="geometry" />
        </mxCell>
        <mxCell id="EyfO6nV798qz1CIs0pT1-958" value="button" style="rounded=1;whiteSpace=wrap;html=1;fontSize=24;" parent="EyfO6nV798qz1CIs0pT1-946" vertex="1">
          <mxGeometry x="408.75" y="340" width="345" height="60" as="geometry" />
        </mxCell>
        <mxCell id="EyfO6nV798qz1CIs0pT1-959" value="button" style="rounded=1;whiteSpace=wrap;html=1;fontSize=24;" parent="EyfO6nV798qz1CIs0pT1-946" vertex="1">
          <mxGeometry x="406.25" y="435" width="345" height="60" as="geometry" />
        </mxCell>
        <mxCell id="EyfO6nV798qz1CIs0pT1-960" value="button" style="rounded=1;whiteSpace=wrap;html=1;fontSize=24;" parent="EyfO6nV798qz1CIs0pT1-946" vertex="1">
          <mxGeometry x="408.75" y="525" width="345" height="60" as="geometry" />
        </mxCell>
        <mxCell id="EyfO6nV798qz1CIs0pT1-961" value="text" style="rounded=0;whiteSpace=wrap;html=1;fontSize=12;" parent="EyfO6nV798qz1CIs0pT1-946" vertex="1">
          <mxGeometry x="582.5" y="200" width="45" height="20" as="geometry" />
        </mxCell>
        <mxCell id="EyfO6nV798qz1CIs0pT1-962" value="text" style="rounded=0;whiteSpace=wrap;html=1;fontSize=12;" parent="EyfO6nV798qz1CIs0pT1-946" vertex="1">
          <mxGeometry x="495" y="285" width="170" height="25" as="geometry" />
        </mxCell>
        <mxCell id="EyfO6nV798qz1CIs0pT1-963" value="" style="group" parent="1" vertex="1" connectable="0">
          <mxGeometry x="5000" y="480" width="1160" height="730" as="geometry" />
        </mxCell>
        <mxCell id="EyfO6nV798qz1CIs0pT1-964" value="" style="rounded=0;whiteSpace=wrap;html=1;" parent="EyfO6nV798qz1CIs0pT1-963" vertex="1">
          <mxGeometry y="50" width="1160" height="680" as="geometry" />
        </mxCell>
        <mxCell id="EyfO6nV798qz1CIs0pT1-965" value="" style="rounded=0;whiteSpace=wrap;html=1;" parent="EyfO6nV798qz1CIs0pT1-963" vertex="1">
          <mxGeometry x="20" y="70" width="1110" height="100" as="geometry" />
        </mxCell>
        <mxCell id="EyfO6nV798qz1CIs0pT1-966" value="nav button" style="rounded=0;whiteSpace=wrap;html=1;" parent="EyfO6nV798qz1CIs0pT1-963" vertex="1">
          <mxGeometry x="40" y="90" width="120" height="60" as="geometry" />
        </mxCell>
        <mxCell id="EyfO6nV798qz1CIs0pT1-967" value="nav button" style="rounded=0;whiteSpace=wrap;html=1;" parent="EyfO6nV798qz1CIs0pT1-963" vertex="1">
          <mxGeometry x="990" y="90" width="120" height="60" as="geometry" />
        </mxCell>
        <mxCell id="EyfO6nV798qz1CIs0pT1-968" value="nav button" style="rounded=0;whiteSpace=wrap;html=1;" parent="EyfO6nV798qz1CIs0pT1-963" vertex="1">
          <mxGeometry x="515" y="90" width="120" height="60" as="geometry" />
        </mxCell>
        <mxCell id="EyfO6nV798qz1CIs0pT1-969" value="nav button" style="rounded=0;whiteSpace=wrap;html=1;" parent="EyfO6nV798qz1CIs0pT1-963" vertex="1">
          <mxGeometry x="270" y="90" width="120" height="60" as="geometry" />
        </mxCell>
        <mxCell id="EyfO6nV798qz1CIs0pT1-970" value="nav button" style="rounded=0;whiteSpace=wrap;html=1;" parent="EyfO6nV798qz1CIs0pT1-963" vertex="1">
          <mxGeometry x="750" y="90" width="120" height="60" as="geometry" />
        </mxCell>
        <mxCell id="EyfO6nV798qz1CIs0pT1-971" value="&lt;font style=&quot;font-size: 38px;&quot;&gt;Quiz page (take quiz)&lt;br&gt;&lt;/font&gt;" style="text;html=1;strokeColor=none;fillColor=none;align=center;verticalAlign=middle;whiteSpace=wrap;rounded=0;" parent="EyfO6nV798qz1CIs0pT1-963" vertex="1">
          <mxGeometry x="310" width="590" height="30" as="geometry" />
        </mxCell>
        <mxCell id="EyfO6nV798qz1CIs0pT1-972" value="" style="rounded=1;whiteSpace=wrap;html=1;fontSize=38;" parent="EyfO6nV798qz1CIs0pT1-963" vertex="1">
          <mxGeometry x="20" y="190" width="1110" height="420" as="geometry" />
        </mxCell>
        <mxCell id="EyfO6nV798qz1CIs0pT1-974" value="text" style="rounded=0;whiteSpace=wrap;html=1;fontSize=12;" parent="EyfO6nV798qz1CIs0pT1-963" vertex="1">
          <mxGeometry x="460" y="230" width="240" height="20" as="geometry" />
        </mxCell>
        <mxCell id="EyfO6nV798qz1CIs0pT1-975" value="button" style="rounded=1;whiteSpace=wrap;html=1;fontSize=24;" parent="EyfO6nV798qz1CIs0pT1-963" vertex="1">
          <mxGeometry x="408.75" y="340" width="345" height="60" as="geometry" />
        </mxCell>
        <mxCell id="EyfO6nV798qz1CIs0pT1-976" value="button" style="rounded=1;whiteSpace=wrap;html=1;fontSize=24;" parent="EyfO6nV798qz1CIs0pT1-963" vertex="1">
          <mxGeometry x="406.25" y="435" width="345" height="60" as="geometry" />
        </mxCell>
        <mxCell id="EyfO6nV798qz1CIs0pT1-977" value="button" style="rounded=1;whiteSpace=wrap;html=1;fontSize=24;" parent="EyfO6nV798qz1CIs0pT1-963" vertex="1">
          <mxGeometry x="408.75" y="525" width="345" height="60" as="geometry" />
        </mxCell>
        <mxCell id="EyfO6nV798qz1CIs0pT1-979" value="text" style="rounded=0;whiteSpace=wrap;html=1;fontSize=12;" parent="EyfO6nV798qz1CIs0pT1-963" vertex="1">
          <mxGeometry x="495" y="260" width="170" height="15" as="geometry" />
        </mxCell>
        <mxCell id="EyfO6nV798qz1CIs0pT1-981" value="" style="group" parent="EyfO6nV798qz1CIs0pT1-963" vertex="1" connectable="0">
          <mxGeometry x="511" y="200" width="138" height="20" as="geometry" />
        </mxCell>
        <mxCell id="EyfO6nV798qz1CIs0pT1-973" value="text" style="rounded=0;whiteSpace=wrap;html=1;fontSize=12;" parent="EyfO6nV798qz1CIs0pT1-981" vertex="1">
          <mxGeometry width="45" height="20" as="geometry" />
        </mxCell>
        <mxCell id="EyfO6nV798qz1CIs0pT1-978" value="text" style="rounded=0;whiteSpace=wrap;html=1;fontSize=12;" parent="EyfO6nV798qz1CIs0pT1-981" vertex="1">
          <mxGeometry x="46.5" width="45" height="20" as="geometry" />
        </mxCell>
        <mxCell id="EyfO6nV798qz1CIs0pT1-980" value="text" style="rounded=0;whiteSpace=wrap;html=1;fontSize=12;" parent="EyfO6nV798qz1CIs0pT1-981" vertex="1">
          <mxGeometry x="93" width="45" height="20" as="geometry" />
        </mxCell>
        <mxCell id="EyfO6nV798qz1CIs0pT1-982" value="text" style="rounded=0;whiteSpace=wrap;html=1;fontSize=12;" parent="EyfO6nV798qz1CIs0pT1-963" vertex="1">
          <mxGeometry x="495.25" y="280" width="170" height="15" as="geometry" />
        </mxCell>
        <mxCell id="EyfO6nV798qz1CIs0pT1-983" value="" style="rounded=1;whiteSpace=wrap;html=1;fontSize=24;" parent="1" vertex="1">
          <mxGeometry x="3864.5" y="420" width="912" height="590" as="geometry" />
        </mxCell>
        <mxCell id="EyfO6nV798qz1CIs0pT1-997" value="video" style="rounded=1;whiteSpace=wrap;html=1;fontSize=24;" parent="1" vertex="1">
          <mxGeometry x="3893.5" y="450" width="850" height="530" as="geometry" />
        </mxCell>
        <mxCell id="EyfO6nV798qz1CIs0pT1-1002" value="button" style="rounded=1;whiteSpace=wrap;html=1;fontSize=7;" parent="1" vertex="1">
          <mxGeometry x="4702" y="440" width="47" height="40" as="geometry" />
        </mxCell>
        <mxCell id="EyfO6nV798qz1CIs0pT1-1003" value="Watch trailer" style="text;html=1;strokeColor=none;fillColor=none;align=center;verticalAlign=middle;whiteSpace=wrap;rounded=0;fontSize=24;" parent="1" vertex="1">
          <mxGeometry x="4169.5" y="389" width="234" height="30" as="geometry" />
        </mxCell>
        <mxCell id="EyfO6nV798qz1CIs0pT1-1004" value="&lt;font style=&quot;font-size: 12px;&quot;&gt;button&lt;/font&gt;" style="ellipse;whiteSpace=wrap;html=1;fontSize=24;" parent="1" vertex="1">
          <mxGeometry x="3913.5" y="920" width="40" height="40" as="geometry" />
        </mxCell>
        <mxCell id="EyfO6nV798qz1CIs0pT1-1005" value="&lt;font style=&quot;font-size: 12px;&quot;&gt;button&lt;/font&gt;" style="ellipse;whiteSpace=wrap;html=1;fontSize=24;" parent="1" vertex="1">
          <mxGeometry x="3963.5" y="920" width="40" height="40" as="geometry" />
        </mxCell>
        <mxCell id="EyfO6nV798qz1CIs0pT1-1006" value="&lt;font style=&quot;font-size: 12px;&quot;&gt;button&lt;/font&gt;" style="ellipse;whiteSpace=wrap;html=1;fontSize=24;" parent="1" vertex="1">
          <mxGeometry x="4684.75" y="920" width="40" height="40" as="geometry" />
        </mxCell>
        <mxCell id="EyfO6nV798qz1CIs0pT1-1007" value="&lt;font style=&quot;font-size: 12px;&quot;&gt;button&lt;/font&gt;" style="ellipse;whiteSpace=wrap;html=1;fontSize=24;" parent="1" vertex="1">
          <mxGeometry x="4633.5" y="920" width="40" height="40" as="geometry" />
        </mxCell>
        <mxCell id="EyfO6nV798qz1CIs0pT1-1008" value="&lt;font style=&quot;font-size: 12px;&quot;&gt;button&lt;/font&gt;" style="ellipse;whiteSpace=wrap;html=1;fontSize=24;" parent="1" vertex="1">
          <mxGeometry x="4583.5" y="920" width="40" height="40" as="geometry" />
        </mxCell>
        <mxCell id="EyfO6nV798qz1CIs0pT1-1009" value="&lt;font style=&quot;font-size: 12px;&quot;&gt;button&lt;/font&gt;" style="ellipse;whiteSpace=wrap;html=1;fontSize=24;" parent="1" vertex="1">
          <mxGeometry x="4533.5" y="920" width="40" height="40" as="geometry" />
        </mxCell>
        <mxCell id="EyfO6nV798qz1CIs0pT1-1010" value="text" style="rounded=0;whiteSpace=wrap;html=1;fontSize=12;" parent="1" vertex="1">
          <mxGeometry x="4023.5" y="930" width="115" height="20" as="geometry" />
        </mxCell>
        <mxCell id="EyfO6nV798qz1CIs0pT1-1011" value="text" style="rounded=0;whiteSpace=wrap;html=1;fontSize=12;" parent="1" vertex="1">
          <mxGeometry x="3963.5" y="470" width="350" height="20" as="geometry" />
        </mxCell>
        <mxCell id="EyfO6nV798qz1CIs0pT1-1012" value="&lt;font style=&quot;font-size: 12px;&quot;&gt;button&lt;/font&gt;" style="ellipse;whiteSpace=wrap;html=1;fontSize=24;" parent="1" vertex="1">
          <mxGeometry x="3910.5" y="460" width="40" height="40" as="geometry" />
        </mxCell>
        <mxCell id="EyfO6nV798qz1CIs0pT1-1013" value="&lt;font style=&quot;font-size: 12px;&quot;&gt;button&lt;/font&gt;" style="ellipse;whiteSpace=wrap;html=1;fontSize=24;" parent="1" vertex="1">
          <mxGeometry x="4622" y="460" width="40" height="40" as="geometry" />
        </mxCell>
        <mxCell id="EyfO6nV798qz1CIs0pT1-1014" value="&lt;font style=&quot;font-size: 12px;&quot;&gt;button&lt;/font&gt;" style="ellipse;whiteSpace=wrap;html=1;fontSize=24;" parent="1" vertex="1">
          <mxGeometry x="4662" y="460" width="40" height="40" as="geometry" />
        </mxCell>
        <mxCell id="EyfO6nV798qz1CIs0pT1-1015" value="button" style="rounded=1;whiteSpace=wrap;html=1;fontSize=7;" parent="1" vertex="1">
          <mxGeometry x="4690.5" y="-210" width="47" height="40" as="geometry" />
        </mxCell>
        <mxCell id="EyfO6nV798qz1CIs0pT1-1016" value="" style="rounded=1;whiteSpace=wrap;html=1;fontSize=24;" parent="1" vertex="1">
          <mxGeometry x="90" y="-170" width="912" height="390" as="geometry" />
        </mxCell>
        <mxCell id="EyfO6nV798qz1CIs0pT1-1030" value="button" style="rounded=1;whiteSpace=wrap;html=1;fontSize=24;" parent="1" vertex="1">
          <mxGeometry x="438.5" y="-120" width="215" height="200" as="geometry" />
        </mxCell>
        <mxCell id="EyfO6nV798qz1CIs0pT1-1035" value="Upload Image modal" style="text;html=1;strokeColor=none;fillColor=none;align=center;verticalAlign=middle;whiteSpace=wrap;rounded=0;fontSize=24;" parent="1" vertex="1">
          <mxGeometry x="420" y="-210" width="234" height="30" as="geometry" />
        </mxCell>
        <mxCell id="EyfO6nV798qz1CIs0pT1-1036" value="button" style="rounded=1;whiteSpace=wrap;html=1;fontSize=7;" parent="1" vertex="1">
          <mxGeometry x="932" y="-150" width="47" height="40" as="geometry" />
        </mxCell>
        <mxCell id="EyfO6nV798qz1CIs0pT1-1037" value="button" style="rounded=1;whiteSpace=wrap;html=1;fontSize=24;" parent="1" vertex="1">
          <mxGeometry x="439" y="110" width="215" height="50" as="geometry" />
        </mxCell>
        <mxCell id="EyfO6nV798qz1CIs0pT1-1038" value="" style="rounded=1;whiteSpace=wrap;html=1;fontSize=24;" parent="1" vertex="1">
          <mxGeometry x="94" y="310" width="912" height="500" as="geometry" />
        </mxCell>
        <mxCell id="EyfO6nV798qz1CIs0pT1-1040" value="Update user information modal" style="text;html=1;strokeColor=none;fillColor=none;align=center;verticalAlign=middle;whiteSpace=wrap;rounded=0;fontSize=24;" parent="1" vertex="1">
          <mxGeometry x="419.5" y="270" width="234" height="30" as="geometry" />
        </mxCell>
        <mxCell id="EyfO6nV798qz1CIs0pT1-1041" value="button" style="rounded=1;whiteSpace=wrap;html=1;fontSize=7;" parent="1" vertex="1">
          <mxGeometry x="932.5" y="350" width="47" height="40" as="geometry" />
        </mxCell>
        <mxCell id="EyfO6nV798qz1CIs0pT1-1042" value="button" style="rounded=1;whiteSpace=wrap;html=1;fontSize=24;" parent="1" vertex="1">
          <mxGeometry x="210" y="720" width="680" height="30" as="geometry" />
        </mxCell>
        <mxCell id="EyfO6nV798qz1CIs0pT1-1043" value="text" style="rounded=0;whiteSpace=wrap;html=1;fontSize=12;" parent="1" vertex="1">
          <mxGeometry x="486" y="340" width="120" height="28" as="geometry" />
        </mxCell>
        <mxCell id="EyfO6nV798qz1CIs0pT1-1044" value="text" style="rounded=0;whiteSpace=wrap;html=1;fontSize=12;" parent="1" vertex="1">
          <mxGeometry x="486" y="442" width="120" height="28" as="geometry" />
        </mxCell>
        <mxCell id="EyfO6nV798qz1CIs0pT1-1045" value="text input" style="rounded=1;whiteSpace=wrap;html=1;fontSize=12;" parent="1" vertex="1">
          <mxGeometry x="205" y="377" width="683" height="50" as="geometry" />
        </mxCell>
        <mxCell id="EyfO6nV798qz1CIs0pT1-1046" value="text input" style="rounded=1;whiteSpace=wrap;html=1;fontSize=12;" parent="1" vertex="1">
          <mxGeometry x="204.5" y="490" width="683" height="190" as="geometry" />
        </mxCell>
        <mxCell id="d61cy0ZIuKxo0eGcfZPc-1" value="" style="rounded=1;whiteSpace=wrap;html=1;fontSize=24;" vertex="1" parent="1">
          <mxGeometry x="90.5" y="900" width="912" height="500" as="geometry" />
        </mxCell>
        <mxCell id="d61cy0ZIuKxo0eGcfZPc-2" value="Quiz Rankings Modal" style="text;html=1;strokeColor=none;fillColor=none;align=center;verticalAlign=middle;whiteSpace=wrap;rounded=0;fontSize=24;" vertex="1" parent="1">
          <mxGeometry x="416" y="860" width="234" height="30" as="geometry" />
        </mxCell>
        <mxCell id="d61cy0ZIuKxo0eGcfZPc-3" value="button" style="rounded=1;whiteSpace=wrap;html=1;fontSize=7;" vertex="1" parent="1">
          <mxGeometry x="929" y="940" width="47" height="40" as="geometry" />
        </mxCell>
        <mxCell id="d61cy0ZIuKxo0eGcfZPc-11" value="Text" style="rounded=0;whiteSpace=wrap;html=1;" vertex="1" parent="1">
          <mxGeometry x="240" y="940" width="250" height="30" as="geometry" />
        </mxCell>
        <mxCell id="d61cy0ZIuKxo0eGcfZPc-12" value="Text" style="rounded=0;whiteSpace=wrap;html=1;" vertex="1" parent="1">
          <mxGeometry x="590" y="940" width="120" height="30" as="geometry" />
        </mxCell>
        <mxCell id="d61cy0ZIuKxo0eGcfZPc-13" value="Dropdown" style="rounded=0;whiteSpace=wrap;html=1;" vertex="1" parent="1">
          <mxGeometry x="720" y="940" width="100" height="30" as="geometry" />
        </mxCell>
        <mxCell id="d61cy0ZIuKxo0eGcfZPc-38" value="" style="group" vertex="1" connectable="0" parent="1">
          <mxGeometry x="456.5" y="1020" width="180" height="280" as="geometry" />
        </mxCell>
        <mxCell id="d61cy0ZIuKxo0eGcfZPc-27" value="" style="rounded=0;whiteSpace=wrap;html=1;" vertex="1" parent="d61cy0ZIuKxo0eGcfZPc-38">
          <mxGeometry width="180" height="280" as="geometry" />
        </mxCell>
        <mxCell id="d61cy0ZIuKxo0eGcfZPc-28" value="image" style="rounded=0;whiteSpace=wrap;html=1;" vertex="1" parent="d61cy0ZIuKxo0eGcfZPc-38">
          <mxGeometry x="30" y="10" width="120" height="90" as="geometry" />
        </mxCell>
        <mxCell id="d61cy0ZIuKxo0eGcfZPc-29" value="text" style="rounded=0;whiteSpace=wrap;html=1;" vertex="1" parent="d61cy0ZIuKxo0eGcfZPc-38">
          <mxGeometry x="150" width="30" height="30" as="geometry" />
        </mxCell>
        <mxCell id="d61cy0ZIuKxo0eGcfZPc-30" value="text" style="rounded=0;whiteSpace=wrap;html=1;" vertex="1" parent="d61cy0ZIuKxo0eGcfZPc-38">
          <mxGeometry x="50" y="110" width="80" height="20" as="geometry" />
        </mxCell>
        <mxCell id="d61cy0ZIuKxo0eGcfZPc-31" value="text" style="rounded=0;whiteSpace=wrap;html=1;" vertex="1" parent="d61cy0ZIuKxo0eGcfZPc-38">
          <mxGeometry x="20" y="140" width="140" height="20" as="geometry" />
        </mxCell>
        <mxCell id="d61cy0ZIuKxo0eGcfZPc-32" value="text" style="rounded=0;whiteSpace=wrap;html=1;" vertex="1" parent="d61cy0ZIuKxo0eGcfZPc-38">
          <mxGeometry x="10" y="180" width="50" height="20" as="geometry" />
        </mxCell>
        <mxCell id="d61cy0ZIuKxo0eGcfZPc-33" value="text" style="rounded=0;whiteSpace=wrap;html=1;" vertex="1" parent="d61cy0ZIuKxo0eGcfZPc-38">
          <mxGeometry x="120" y="180" width="50" height="20" as="geometry" />
        </mxCell>
        <mxCell id="d61cy0ZIuKxo0eGcfZPc-34" value="text" style="rounded=0;whiteSpace=wrap;html=1;" vertex="1" parent="d61cy0ZIuKxo0eGcfZPc-38">
          <mxGeometry x="10" y="210" width="50" height="20" as="geometry" />
        </mxCell>
        <mxCell id="d61cy0ZIuKxo0eGcfZPc-35" value="text" style="rounded=0;whiteSpace=wrap;html=1;" vertex="1" parent="d61cy0ZIuKxo0eGcfZPc-38">
          <mxGeometry x="120" y="210" width="50" height="20" as="geometry" />
        </mxCell>
        <mxCell id="d61cy0ZIuKxo0eGcfZPc-36" value="text" style="rounded=0;whiteSpace=wrap;html=1;" vertex="1" parent="d61cy0ZIuKxo0eGcfZPc-38">
          <mxGeometry x="10" y="240" width="50" height="20" as="geometry" />
        </mxCell>
        <mxCell id="d61cy0ZIuKxo0eGcfZPc-37" value="text" style="rounded=0;whiteSpace=wrap;html=1;" vertex="1" parent="d61cy0ZIuKxo0eGcfZPc-38">
          <mxGeometry x="120" y="240" width="50" height="20" as="geometry" />
        </mxCell>
        <mxCell id="d61cy0ZIuKxo0eGcfZPc-39" value="" style="group" vertex="1" connectable="0" parent="1">
          <mxGeometry x="708" y="1020" width="180" height="280" as="geometry" />
        </mxCell>
        <mxCell id="d61cy0ZIuKxo0eGcfZPc-40" value="" style="rounded=0;whiteSpace=wrap;html=1;" vertex="1" parent="d61cy0ZIuKxo0eGcfZPc-39">
          <mxGeometry width="180" height="280" as="geometry" />
        </mxCell>
        <mxCell id="d61cy0ZIuKxo0eGcfZPc-41" value="image" style="rounded=0;whiteSpace=wrap;html=1;" vertex="1" parent="d61cy0ZIuKxo0eGcfZPc-39">
          <mxGeometry x="30" y="10" width="120" height="90" as="geometry" />
        </mxCell>
        <mxCell id="d61cy0ZIuKxo0eGcfZPc-42" value="text" style="rounded=0;whiteSpace=wrap;html=1;" vertex="1" parent="d61cy0ZIuKxo0eGcfZPc-39">
          <mxGeometry x="150" width="30" height="30" as="geometry" />
        </mxCell>
        <mxCell id="d61cy0ZIuKxo0eGcfZPc-43" value="text" style="rounded=0;whiteSpace=wrap;html=1;" vertex="1" parent="d61cy0ZIuKxo0eGcfZPc-39">
          <mxGeometry x="50" y="110" width="80" height="20" as="geometry" />
        </mxCell>
        <mxCell id="d61cy0ZIuKxo0eGcfZPc-44" value="text" style="rounded=0;whiteSpace=wrap;html=1;" vertex="1" parent="d61cy0ZIuKxo0eGcfZPc-39">
          <mxGeometry x="20" y="140" width="140" height="20" as="geometry" />
        </mxCell>
        <mxCell id="d61cy0ZIuKxo0eGcfZPc-45" value="text" style="rounded=0;whiteSpace=wrap;html=1;" vertex="1" parent="d61cy0ZIuKxo0eGcfZPc-39">
          <mxGeometry x="10" y="180" width="50" height="20" as="geometry" />
        </mxCell>
        <mxCell id="d61cy0ZIuKxo0eGcfZPc-46" value="text" style="rounded=0;whiteSpace=wrap;html=1;" vertex="1" parent="d61cy0ZIuKxo0eGcfZPc-39">
          <mxGeometry x="120" y="180" width="50" height="20" as="geometry" />
        </mxCell>
        <mxCell id="d61cy0ZIuKxo0eGcfZPc-47" value="text" style="rounded=0;whiteSpace=wrap;html=1;" vertex="1" parent="d61cy0ZIuKxo0eGcfZPc-39">
          <mxGeometry x="10" y="210" width="50" height="20" as="geometry" />
        </mxCell>
        <mxCell id="d61cy0ZIuKxo0eGcfZPc-48" value="text" style="rounded=0;whiteSpace=wrap;html=1;" vertex="1" parent="d61cy0ZIuKxo0eGcfZPc-39">
          <mxGeometry x="120" y="210" width="50" height="20" as="geometry" />
        </mxCell>
        <mxCell id="d61cy0ZIuKxo0eGcfZPc-49" value="text" style="rounded=0;whiteSpace=wrap;html=1;" vertex="1" parent="d61cy0ZIuKxo0eGcfZPc-39">
          <mxGeometry x="10" y="240" width="50" height="20" as="geometry" />
        </mxCell>
        <mxCell id="d61cy0ZIuKxo0eGcfZPc-50" value="text" style="rounded=0;whiteSpace=wrap;html=1;" vertex="1" parent="d61cy0ZIuKxo0eGcfZPc-39">
          <mxGeometry x="120" y="240" width="50" height="20" as="geometry" />
        </mxCell>
        <mxCell id="d61cy0ZIuKxo0eGcfZPc-51" value="" style="group" vertex="1" connectable="0" parent="1">
          <mxGeometry x="210" y="1020" width="180" height="280" as="geometry" />
        </mxCell>
        <mxCell id="d61cy0ZIuKxo0eGcfZPc-16" value="" style="rounded=0;whiteSpace=wrap;html=1;" vertex="1" parent="d61cy0ZIuKxo0eGcfZPc-51">
          <mxGeometry width="180" height="280" as="geometry" />
        </mxCell>
        <mxCell id="d61cy0ZIuKxo0eGcfZPc-17" value="image" style="rounded=0;whiteSpace=wrap;html=1;" vertex="1" parent="d61cy0ZIuKxo0eGcfZPc-51">
          <mxGeometry x="30" y="10" width="120" height="90" as="geometry" />
        </mxCell>
        <mxCell id="d61cy0ZIuKxo0eGcfZPc-18" value="text" style="rounded=0;whiteSpace=wrap;html=1;" vertex="1" parent="d61cy0ZIuKxo0eGcfZPc-51">
          <mxGeometry x="150" width="30" height="30" as="geometry" />
        </mxCell>
        <mxCell id="d61cy0ZIuKxo0eGcfZPc-19" value="text" style="rounded=0;whiteSpace=wrap;html=1;" vertex="1" parent="d61cy0ZIuKxo0eGcfZPc-51">
          <mxGeometry x="50" y="110" width="80" height="20" as="geometry" />
        </mxCell>
        <mxCell id="d61cy0ZIuKxo0eGcfZPc-20" value="text" style="rounded=0;whiteSpace=wrap;html=1;" vertex="1" parent="d61cy0ZIuKxo0eGcfZPc-51">
          <mxGeometry x="20" y="140" width="140" height="20" as="geometry" />
        </mxCell>
        <mxCell id="d61cy0ZIuKxo0eGcfZPc-21" value="text" style="rounded=0;whiteSpace=wrap;html=1;" vertex="1" parent="d61cy0ZIuKxo0eGcfZPc-51">
          <mxGeometry x="10" y="180" width="50" height="20" as="geometry" />
        </mxCell>
        <mxCell id="d61cy0ZIuKxo0eGcfZPc-22" value="text" style="rounded=0;whiteSpace=wrap;html=1;" vertex="1" parent="d61cy0ZIuKxo0eGcfZPc-51">
          <mxGeometry x="120" y="180" width="50" height="20" as="geometry" />
        </mxCell>
        <mxCell id="d61cy0ZIuKxo0eGcfZPc-23" value="text" style="rounded=0;whiteSpace=wrap;html=1;" vertex="1" parent="d61cy0ZIuKxo0eGcfZPc-51">
          <mxGeometry x="10" y="210" width="50" height="20" as="geometry" />
        </mxCell>
        <mxCell id="d61cy0ZIuKxo0eGcfZPc-24" value="text" style="rounded=0;whiteSpace=wrap;html=1;" vertex="1" parent="d61cy0ZIuKxo0eGcfZPc-51">
          <mxGeometry x="120" y="210" width="50" height="20" as="geometry" />
        </mxCell>
        <mxCell id="d61cy0ZIuKxo0eGcfZPc-25" value="text" style="rounded=0;whiteSpace=wrap;html=1;" vertex="1" parent="d61cy0ZIuKxo0eGcfZPc-51">
          <mxGeometry x="10" y="240" width="50" height="20" as="geometry" />
        </mxCell>
        <mxCell id="d61cy0ZIuKxo0eGcfZPc-26" value="text" style="rounded=0;whiteSpace=wrap;html=1;" vertex="1" parent="d61cy0ZIuKxo0eGcfZPc-51">
          <mxGeometry x="120" y="240" width="50" height="20" as="geometry" />
        </mxCell>
        <mxCell id="d61cy0ZIuKxo0eGcfZPc-52" value="Annie" style="rounded=0;whiteSpace=wrap;html=1;" vertex="1" parent="1">
          <mxGeometry x="560" y="1560" width="120" height="60" as="geometry" />
        </mxCell>
        <mxCell id="d61cy0ZIuKxo0eGcfZPc-53" value="account" style="rounded=0;whiteSpace=wrap;html=1;" vertex="1" parent="1">
          <mxGeometry x="30" y="1700" width="120" height="60" as="geometry" />
        </mxCell>
        <mxCell id="d61cy0ZIuKxo0eGcfZPc-54" value="sauce finder" style="rounded=0;whiteSpace=wrap;html=1;" vertex="1" parent="1">
          <mxGeometry x="296" y="1700" width="120" height="60" as="geometry" />
        </mxCell>
        <mxCell id="d61cy0ZIuKxo0eGcfZPc-55" value="calendar" style="rounded=0;whiteSpace=wrap;html=1;" vertex="1" parent="1">
          <mxGeometry x="560" y="1700" width="120" height="60" as="geometry" />
        </mxCell>
        <mxCell id="d61cy0ZIuKxo0eGcfZPc-56" value="recommendations" style="rounded=0;whiteSpace=wrap;html=1;" vertex="1" parent="1">
          <mxGeometry x="820" y="1700" width="120" height="60" as="geometry" />
        </mxCell>
        <mxCell id="d61cy0ZIuKxo0eGcfZPc-57" value="quiz" style="rounded=0;whiteSpace=wrap;html=1;" vertex="1" parent="1">
          <mxGeometry x="1080" y="1700" width="120" height="60" as="geometry" />
        </mxCell>
        <mxCell id="d61cy0ZIuKxo0eGcfZPc-58" value="Profile picture" style="rounded=0;whiteSpace=wrap;html=1;" vertex="1" parent="1">
          <mxGeometry x="85" y="1800" width="120" height="60" as="geometry" />
        </mxCell>
        <mxCell id="d61cy0ZIuKxo0eGcfZPc-59" value="Name and bio" style="rounded=0;whiteSpace=wrap;html=1;" vertex="1" parent="1">
          <mxGeometry x="84.5" y="1900" width="120" height="60" as="geometry" />
        </mxCell>
        <mxCell id="d61cy0ZIuKxo0eGcfZPc-60" value="Quiz Scores and rankings" style="rounded=0;whiteSpace=wrap;html=1;" vertex="1" parent="1">
          <mxGeometry x="85" y="2000" width="120" height="60" as="geometry" />
        </mxCell>
        <mxCell id="d61cy0ZIuKxo0eGcfZPc-61" value="Discord and MyAnimeList Integration" style="rounded=0;whiteSpace=wrap;html=1;" vertex="1" parent="1">
          <mxGeometry x="84.5" y="2100" width="120" height="60" as="geometry" />
        </mxCell>
        <mxCell id="d61cy0ZIuKxo0eGcfZPc-62" value="search via screenshot" style="rounded=0;whiteSpace=wrap;html=1;" vertex="1" parent="1">
          <mxGeometry x="350" y="1800" width="120" height="60" as="geometry" />
        </mxCell>
        <mxCell id="d61cy0ZIuKxo0eGcfZPc-63" value="search via link" style="rounded=0;whiteSpace=wrap;html=1;" vertex="1" parent="1">
          <mxGeometry x="350" y="1900" width="120" height="60" as="geometry" />
        </mxCell>
        <mxCell id="d61cy0ZIuKxo0eGcfZPc-65" value="Month View" style="rounded=0;whiteSpace=wrap;html=1;" vertex="1" parent="1">
          <mxGeometry x="620" y="1800" width="120" height="60" as="geometry" />
        </mxCell>
        <mxCell id="d61cy0ZIuKxo0eGcfZPc-66" value="Week view" style="rounded=0;whiteSpace=wrap;html=1;" vertex="1" parent="1">
          <mxGeometry x="620" y="1900" width="120" height="60" as="geometry" />
        </mxCell>
        <mxCell id="d61cy0ZIuKxo0eGcfZPc-67" value="Release Schedules" style="rounded=0;whiteSpace=wrap;html=1;" vertex="1" parent="1">
          <mxGeometry x="620" y="2000" width="120" height="60" as="geometry" />
        </mxCell>
        <mxCell id="d61cy0ZIuKxo0eGcfZPc-68" value="View Schedules" style="rounded=0;whiteSpace=wrap;html=1;" vertex="1" parent="1">
          <mxGeometry x="620" y="2100" width="120" height="60" as="geometry" />
        </mxCell>
        <mxCell id="d61cy0ZIuKxo0eGcfZPc-69" value="show information" style="rounded=0;whiteSpace=wrap;html=1;" vertex="1" parent="1">
          <mxGeometry x="618" y="2200" width="120" height="60" as="geometry" />
        </mxCell>
        <mxCell id="d61cy0ZIuKxo0eGcfZPc-70" value="get recommendations" style="rounded=0;whiteSpace=wrap;html=1;" vertex="1" parent="1">
          <mxGeometry x="882.5" y="1800" width="120" height="60" as="geometry" />
        </mxCell>
        <mxCell id="d61cy0ZIuKxo0eGcfZPc-71" value="update animelist" style="rounded=0;whiteSpace=wrap;html=1;" vertex="1" parent="1">
          <mxGeometry x="620" y="2300" width="120" height="60" as="geometry" />
        </mxCell>
        <mxCell id="d61cy0ZIuKxo0eGcfZPc-72" value="show information" style="rounded=0;whiteSpace=wrap;html=1;" vertex="1" parent="1">
          <mxGeometry x="882.5" y="1900" width="120" height="60" as="geometry" />
        </mxCell>
        <mxCell id="d61cy0ZIuKxo0eGcfZPc-73" value="update animelist" style="rounded=0;whiteSpace=wrap;html=1;" vertex="1" parent="1">
          <mxGeometry x="882" y="2000" width="120" height="60" as="geometry" />
        </mxCell>
        <mxCell id="d61cy0ZIuKxo0eGcfZPc-74" value="hiragana quiz" style="rounded=0;whiteSpace=wrap;html=1;" vertex="1" parent="1">
          <mxGeometry x="1140" y="1800" width="120" height="60" as="geometry" />
        </mxCell>
        <mxCell id="d61cy0ZIuKxo0eGcfZPc-75" value="katakana quiz" style="rounded=0;whiteSpace=wrap;html=1;" vertex="1" parent="1">
          <mxGeometry x="1140" y="1900" width="120" height="60" as="geometry" />
        </mxCell>
        <mxCell id="d61cy0ZIuKxo0eGcfZPc-76" value="kanji quiz" style="rounded=0;whiteSpace=wrap;html=1;" vertex="1" parent="1">
          <mxGeometry x="1140" y="2000" width="120" height="60" as="geometry" />
        </mxCell>
        <mxCell id="d61cy0ZIuKxo0eGcfZPc-80" value="" style="endArrow=none;html=1;rounded=0;" edge="1" parent="1">
          <mxGeometry width="50" height="50" relative="1" as="geometry">
            <mxPoint x="90" y="1650" as="sourcePoint" />
            <mxPoint x="1140" y="1650" as="targetPoint" />
          </mxGeometry>
        </mxCell>
        <mxCell id="d61cy0ZIuKxo0eGcfZPc-82" value="" style="endArrow=classic;html=1;rounded=0;entryX=0.5;entryY=0;entryDx=0;entryDy=0;" edge="1" parent="1" target="d61cy0ZIuKxo0eGcfZPc-57">
          <mxGeometry width="50" height="50" relative="1" as="geometry">
            <mxPoint x="1140" y="1650" as="sourcePoint" />
            <mxPoint x="1180" y="1650" as="targetPoint" />
          </mxGeometry>
        </mxCell>
        <mxCell id="d61cy0ZIuKxo0eGcfZPc-83" value="" style="endArrow=classic;html=1;rounded=0;" edge="1" parent="1" target="d61cy0ZIuKxo0eGcfZPc-53">
          <mxGeometry width="50" height="50" relative="1" as="geometry">
            <mxPoint x="90" y="1650" as="sourcePoint" />
            <mxPoint x="110" y="1720" as="targetPoint" />
          </mxGeometry>
        </mxCell>
        <mxCell id="d61cy0ZIuKxo0eGcfZPc-85" value="" style="endArrow=classic;startArrow=classic;html=1;rounded=0;entryX=0.5;entryY=1;entryDx=0;entryDy=0;exitX=0.5;exitY=0;exitDx=0;exitDy=0;" edge="1" parent="1" source="d61cy0ZIuKxo0eGcfZPc-55" target="d61cy0ZIuKxo0eGcfZPc-52">
          <mxGeometry width="50" height="50" relative="1" as="geometry">
            <mxPoint x="600" y="1710" as="sourcePoint" />
            <mxPoint x="650" y="1660" as="targetPoint" />
          </mxGeometry>
        </mxCell>
      </root>
    </mxGraphModel>
  </diagram>
</mxfile>
